<svg width="24" height="24" viewBox="0 0 24 24" fill="none" xmlns="http://www.w3.org/2000/svg">
<g clip-path="url(#clip0_1_316)">
<g clip-path="url(#clip1_1_316)">
<path fill-rule="evenodd" clip-rule="evenodd" d="M-4.36365 -0.27272H42.2727V1.61933H-4.36365V-0.27272ZM-4.36365 3.50626H42.2727V5.3983H-4.36365V3.50626ZM-4.36365 7.28012H42.2727V9.17217H-4.36365V7.28012ZM-4.36365 11.054H42.2727V12.946H-4.36365V11.054ZM-4.36365 14.8381H42.2727V16.7199H-4.36365V14.8381ZM-4.36365 18.6068H42.2727V20.4989H-4.36365V18.6068ZM-4.36365 22.3807H42.2727V24.2727H-4.36365V22.3807Z" fill="#BD3D44"/>
<path fill-rule="evenodd" clip-rule="evenodd" d="M-4.36365 1.61932H42.2727V3.50626H-4.36365V1.61932ZM-4.36365 5.39319H42.2727V7.28012H-4.36365V5.39319ZM-4.36365 9.16705H42.2727V11.0591H-4.36365V9.16705ZM-4.36365 12.946H42.2727V14.8381H-4.36365V12.946ZM-4.36365 16.7199H42.2727V18.6119H-4.36365V16.7199ZM-4.36365 20.4938H42.2727V22.3858H-4.36365V20.4938Z" fill="white"/>
<path fill-rule="evenodd" clip-rule="evenodd" d="M-4.36365 -0.27272H14.2909V12.946H-4.36365V-0.27272Z" fill="#192F5D"/>
<path fill-rule="evenodd" clip-rule="evenodd" d="M-2.8091 0.28978L-2.63523 0.816484H-2.09319L-2.53296 1.13864L-2.36421 1.66535L-2.8091 1.33808L-3.24887 1.66023L-3.08523 1.13864L-3.53012 0.816484H-2.97273L-2.8091 0.28978ZM0.299992 0.28978L0.468742 0.816484H1.02102L0.576129 1.13864L0.739765 1.66535L0.299992 1.33808L-0.144894 1.66023L0.0238562 1.13864L-0.415917 0.816484H0.126129L0.299992 0.28978ZM3.40908 0.28978L3.57783 0.816484H4.12499L3.68522 1.13864L3.85397 1.66535L3.40908 1.33808L2.9642 1.66023L3.13295 1.13864L2.68806 0.816484H3.24033L3.40908 0.28978ZM6.51817 0.28978L6.68692 0.816484H7.2392L6.79431 1.13864L6.96306 1.66535L6.51817 1.33808L6.07329 1.66023L6.24715 1.13864L5.79715 0.816484H6.34431L6.51817 0.28978ZM9.62726 0.28978L9.79601 0.816484H10.3432L9.9034 1.13864L10.0722 1.66535L9.62726 1.33808L9.18238 1.66023L9.35113 1.13864L8.91136 0.816484H9.45851L9.62726 0.28978ZM12.7364 0.28978L12.9051 0.816484H13.4574L13.0074 1.13864L13.1812 1.66535L12.7364 1.33808L12.2915 1.66023L12.4653 1.13864L12.0153 0.816484H12.5676L12.7364 0.28978ZM-1.25455 1.61933L-1.0858 2.14092H-0.528416L-0.973303 2.45796L-0.809666 2.98467L-1.24433 2.66251L-1.68921 2.98467L-1.53069 2.45796L-1.96023 2.14092H-1.41308L-1.25455 1.61933ZM1.85454 1.61933L2.0284 2.14092H2.57556L2.12556 2.45796L2.29942 2.98467L1.85454 2.66251L1.40965 2.98467L1.5784 2.45796L1.13351 2.14092H1.68579L1.85454 1.61933ZM4.96363 1.61933L5.13238 2.14092H5.68465L5.23977 2.45796L5.40851 2.98467L4.96363 2.66251L4.51874 2.98467L4.68749 2.45796L4.24772 2.14092H4.78976L4.96363 1.61933ZM8.07272 1.61933L8.24658 2.14092H8.79374L8.34374 2.45796L8.5176 2.98467L8.07272 2.66251L7.63295 2.98467L7.79658 2.45796L7.3517 2.14092H7.90908L8.07272 1.61933ZM11.1818 1.61933L11.3506 2.14092H11.9028L11.4579 2.45796L11.6267 2.98467L11.1818 2.66251L10.7369 2.98467L10.9057 2.45796L10.4659 2.14092H11.0131L11.1818 1.61933ZM-2.8091 2.92842L-2.63523 3.46023H-2.09319L-2.53296 3.78239L-2.36421 4.30398L-2.8091 3.98183L-3.24887 4.30398L-3.08523 3.78239L-3.53012 3.46023H-2.97273L-2.8091 2.92842ZM0.299992 2.92842L0.468742 3.46023H1.02102L0.576129 3.78239L0.739765 4.30398L0.299992 3.98183L-0.144894 4.30398L0.0238562 3.77728L-0.415917 3.45512H0.126129L0.299992 2.92842ZM3.40908 2.92842L3.57783 3.45512H4.12499L3.68522 3.77728L3.85397 4.29887L3.40908 3.97671L2.9642 4.29887L3.13295 3.77217L2.68806 3.45001H3.24033L3.40908 2.92842ZM6.51817 2.92842L6.68692 3.45512H7.2392L6.79431 3.77728L6.96306 4.29887L6.51817 3.97671L6.07329 4.29887L6.24715 3.77217L5.79715 3.45001H6.34431L6.51817 2.92842ZM9.62726 2.92842L9.79601 3.45512H10.3432L9.9034 3.77728L10.0722 4.29887L9.62726 3.97671L9.18238 4.29887L9.35113 3.77217L8.91136 3.45001H9.45851L9.62726 2.92842ZM12.7364 2.92842L12.9051 3.45512H13.4574L13.0074 3.77728L13.1812 4.29887L12.7364 3.97671L12.2915 4.29887L12.4653 3.77217L12.0153 3.45001H12.5676L12.7364 2.92842ZM-1.25455 4.25796L-1.0858 4.77955H-0.528416L-0.973303 5.10171L-0.804553 5.62842L-1.24944 5.30114L-1.69433 5.6233L-1.52558 5.10171L-1.96535 4.77955H-1.41819L-1.25455 4.25796ZM1.85454 4.25796L2.0284 4.77955H2.57556L2.12556 5.10171L2.29942 5.62842L1.85454 5.30114L1.40965 5.6233L1.5784 5.10171L1.13351 4.77955H1.68579L1.85454 4.25796ZM4.96363 4.25796L5.13238 4.77955H5.68465L5.23977 5.10171L5.40851 5.62842L4.96363 5.30114L4.51874 5.6233L4.68749 5.10171L4.24772 4.77955H4.78976L4.96363 4.25796ZM8.07272 4.25796L8.24658 4.77955H8.79374L8.34886 5.10171L8.5176 5.62842L8.07272 5.30114L7.63295 5.6233L7.79658 5.10171L7.3517 4.77955H7.90908L8.07272 4.25796ZM11.1818 4.25796L11.3506 4.77955H11.9028L11.4579 5.10171L11.6267 5.62842L11.1818 5.30114L10.7369 5.6233L10.9057 5.10171L10.4659 4.77955H11.0131L11.1818 4.25796ZM-2.8091 5.58239L-2.63523 6.10398H-2.09319L-2.53296 6.42614L-2.36421 6.95285L-2.8091 6.62558L-3.24887 6.94773L-3.08523 6.42614L-3.53012 6.10398H-2.97273L-2.8091 5.58239ZM0.299992 5.58239L0.468742 6.10398H1.02102L0.576129 6.42614L0.739765 6.94773L0.299992 6.62558L-0.144894 6.94773L0.0238562 6.42614L-0.415917 6.10398H0.126129L0.299992 5.58239ZM3.40908 5.58239L3.57783 6.10398H4.12499L3.68522 6.42614L3.85397 6.95285L3.40908 6.62558L2.9642 6.94773L3.13295 6.42614L2.68806 6.10398H3.24033L3.40908 5.58239ZM6.51817 5.58239L6.68692 6.10398H7.2392L6.79431 6.42614L6.96306 6.95285L6.51817 6.62558L6.07329 6.94773L6.24715 6.42614L5.79715 6.10398H6.34431L6.51817 5.58239ZM9.62726 5.58239L9.79601 6.10398H10.3432L9.9034 6.42614L10.0722 6.95285L9.62726 6.62558L9.18238 6.94773L9.35113 6.42614L8.91136 6.10398H9.45851L9.62726 5.58239ZM12.7364 5.58239L12.9051 6.10398H13.4574L13.0074 6.42614L13.1812 6.95285L12.7364 6.62558L12.2915 6.94773L12.4602 6.42614L12.0102 6.10398H12.5625L12.7364 5.58239ZM-1.25455 6.90171L-1.0858 7.42842H-0.528416L-0.973303 7.74546L-0.804553 8.27217L-1.24944 7.94489L-1.69433 8.27217L-1.52558 7.74546L-1.96535 7.4233H-1.41819L-1.25455 6.90171ZM1.85454 6.90171L2.0284 7.42842H2.57556L2.12556 7.74546L2.29942 8.27217L1.85454 7.94489L1.40965 8.27217L1.5784 7.74546L1.13351 7.4233H1.68579L1.85454 6.90171ZM4.96363 6.90171L5.13238 7.42842H5.68465L5.23977 7.74546L5.40851 8.27217L4.96363 7.94489L4.51874 8.27217L4.68749 7.74546L4.24772 7.4233H4.78976L4.96363 6.90171ZM8.07272 6.90171L8.24658 7.42842H8.79374L8.34886 7.74546L8.5176 8.27217L8.07272 7.94489L7.63295 8.27217L7.79658 7.74546L7.3517 7.4233H7.90908L8.07272 6.90171ZM11.1818 6.90171L11.3506 7.42842H11.9028L11.4579 7.74546L11.6267 8.27217L11.1818 7.94489L10.7369 8.27217L10.9057 7.74546L10.4659 7.4233H11.0131L11.1818 6.90171ZM-2.8091 8.22103L-2.63523 8.74773H-2.09319L-2.53296 9.06989L-2.36421 9.58637L-2.8091 9.26933L-3.24887 9.58637L-3.08523 9.06478L-3.53012 8.74262H-2.97273L-2.8091 8.22103ZM0.299992 8.22103L0.468742 8.74773H1.02102L0.576129 9.06989L0.744879 9.58637L0.299992 9.26933L-0.144894 9.58637L0.02897 9.06478L-0.415917 8.74262H0.126129L0.299992 8.22103ZM3.40908 8.22103L3.57783 8.74773H4.12499L3.68522 9.06989L3.85397 9.58637L3.40908 9.26933L2.9642 9.58637L3.13295 9.06478L2.68806 8.74262H3.24033L3.40908 8.22103ZM6.51817 8.22103L6.68692 8.74773H7.2392L6.79431 9.06989L6.96306 9.58637L6.51817 9.26933L6.07329 9.58637L6.24715 9.06478L5.79715 8.74262H6.34431L6.51817 8.22103ZM9.62726 8.22103L9.79601 8.74773H10.3432L9.9034 9.06989L10.0722 9.58637L9.62726 9.26933L9.18238 9.58637L9.35113 9.06478L8.91136 8.74262H9.45851L9.62726 8.22103ZM12.7364 8.22103L12.9051 8.74773H13.4574L13.0074 9.06989L13.1812 9.58637L12.7364 9.26933L12.2915 9.58637L12.4653 9.06478L12.0153 8.74262H12.5676L12.7364 8.22103ZM-1.25455 9.54546L-1.0858 10.0671H-0.528416L-0.973303 10.3892L-0.804553 10.9159L-1.24944 10.5886L-1.69433 10.9108L-1.52558 10.3892L-1.96535 10.0671H-1.41819L-1.25455 9.54546ZM1.85454 9.54546L2.0284 10.0671H2.57556L2.12556 10.3892L2.29942 10.9159L1.85454 10.5886L1.40965 10.9108L1.5784 10.3892L1.13351 10.0671H1.68579L1.85454 9.54546ZM4.96363 9.54546L5.13238 10.0671H5.68465L5.23977 10.3892L5.40851 10.9159L4.96363 10.5886L4.51874 10.9108L4.68749 10.3892L4.24772 10.0671H4.78976L4.96363 9.54546ZM8.07272 9.54546L8.24658 10.0671H8.79374L8.34886 10.3892L8.5176 10.9159L8.07272 10.5886L7.63295 10.9108L7.79658 10.3892L7.3517 10.0671H7.90908L8.07272 9.54546ZM11.1818 9.54546L11.3506 10.0671H11.9028L11.4579 10.3892L11.6267 10.9159L11.1818 10.5886L10.7369 10.9108L10.9057 10.3892L10.4659 10.0671H11.0131L11.1818 9.54546ZM-2.8091 10.8699L-2.63523 11.3915H-2.09319L-2.53296 11.7136L-2.36421 12.2352L-2.8091 11.9131L-3.24887 12.2352L-3.08523 11.7085L-3.53012 11.3864H-2.97273L-2.8091 10.8699ZM0.299992 10.8699L0.468742 11.3915H1.02102L0.576129 11.7136L0.744879 12.2352L0.299992 11.9131L-0.144894 12.2352L0.02897 11.7085L-0.415917 11.3864H0.126129L0.299992 10.8699ZM3.40908 10.8699L3.57783 11.3915H4.12499L3.69545 11.7136L3.8642 12.2352L3.41931 11.9131L2.97442 12.2352L3.14317 11.7085L2.69829 11.3864H3.25056L3.40908 10.8699ZM6.51817 10.8699L6.68692 11.3915H7.2392L6.79431 11.7136L6.96306 12.2352L6.51817 11.9131L6.07329 12.2352L6.24715 11.7085L5.79715 11.3864H6.34431L6.51817 10.8699ZM9.62726 10.8699L9.79601 11.3915H10.3432L9.9034 11.7136L10.0722 12.2352L9.62726 11.9131L9.18238 12.2352L9.35113 11.7085L8.91136 11.3864H9.45851L9.62726 10.8699ZM12.7364 10.8699L12.9051 11.3915H13.4574L13.0074 11.7136L13.1812 12.2352L12.7364 11.9131L12.2915 12.2352L12.4653 11.7085L12.0153 11.3864H12.5676L12.7364 10.8699Z" fill="white"/>
</g>
</g>
<defs>
<clipPath id="clip0_1_316">
<rect width="24" height="24" rx="12" fill="white"/>
</clipPath>
<clipPath id="clip1_1_316">
<rect width="32.7273" height="24.5455" fill="white" transform="translate(-4.36365 -0.27272)"/>
</clipPath>
</defs>
</svg>
