<svg xmlns="http://www.w3.org/2000/svg" xmlns:xlink="http://www.w3.org/1999/xlink" width="500" zoomAndPan="magnify" viewBox="0 0 375 374.999991" height="500" preserveAspectRatio="xMidYMid meet" version="1.0"><defs><g/><clipPath id="9de0ee848f"><path d="M 182 102.402344 L 202 102.402344 L 202 192 L 182 192 Z M 182 102.402344 " clip-rule="nonzero"/></clipPath><clipPath id="4e14ad351f"><path d="M 143.070312 136 L 231.570312 136 L 231.570312 214.902344 L 143.070312 214.902344 Z M 143.070312 136 " clip-rule="nonzero"/></clipPath></defs><g clip-path="url(#9de0ee848f)"><path fill="#ff3131" d="M 193.457031 116.375 C 190.460938 116.375 188.035156 113.933594 188.035156 110.921875 C 188.035156 107.90625 190.460938 105.464844 193.457031 105.464844 C 196.453125 105.464844 198.878906 107.90625 198.878906 110.921875 C 198.878906 113.933594 196.453125 116.375 193.457031 116.375 Z M 193.457031 102.398438 C 188.777344 102.398438 184.984375 106.214844 184.984375 110.921875 C 184.984375 114.980469 187.804688 118.375 191.582031 119.230469 L 191.578125 119.230469 L 191.578125 172.046875 L 182.046875 181.613281 L 182.046875 189.472656 C 183.28125 190.1875 184.535156 190.84375 185.800781 191.433594 L 185.800781 183.179688 L 195.332031 173.613281 L 195.332031 119.230469 C 195.335938 119.230469 195.335938 119.230469 195.335938 119.230469 C 199.109375 118.371094 201.929688 114.976562 201.929688 110.921875 C 201.929688 106.214844 198.136719 102.398438 193.457031 102.398438 " fill-opacity="1" fill-rule="nonzero"/></g><path fill="#ff3131" d="M 174.394531 165.578125 C 171.394531 165.578125 168.96875 163.132812 168.96875 160.121094 C 168.96875 157.109375 171.394531 154.667969 174.394531 154.667969 C 177.386719 154.667969 179.816406 157.109375 179.816406 160.121094 C 179.816406 163.132812 177.386719 165.578125 174.394531 165.578125 Z M 174.394531 151.601562 C 169.714844 151.601562 165.921875 155.417969 165.921875 160.121094 C 165.921875 164.179688 168.738281 167.574219 172.515625 168.433594 L 172.515625 182.242188 C 173.6875 183.390625 174.941406 184.492188 176.273438 185.539062 L 176.273438 168.429688 C 180.046875 167.570312 182.863281 164.179688 182.863281 160.121094 C 182.863281 155.417969 179.070312 151.601562 174.394531 151.601562 " fill-opacity="1" fill-rule="nonzero"/><path fill="#ff3131" d="M 201.433594 134.234375 C 201.433594 131.222656 203.859375 128.78125 206.855469 128.78125 C 209.851562 128.78125 212.277344 131.222656 212.277344 134.234375 C 212.277344 137.246094 209.851562 139.6875 206.855469 139.6875 C 203.859375 139.6875 201.433594 137.246094 201.433594 134.234375 Z M 195.449219 186.570312 L 195.449219 194.613281 C 196.71875 194.859375 197.976562 195.027344 199.203125 195.117188 L 199.203125 188.136719 L 208.734375 178.570312 L 208.734375 142.546875 C 212.511719 141.683594 215.328125 138.292969 215.328125 134.234375 C 215.328125 129.527344 211.535156 125.714844 206.855469 125.714844 C 202.175781 125.714844 198.382812 129.527344 198.382812 134.234375 C 198.382812 138.292969 201.203125 141.6875 204.980469 142.546875 L 204.980469 177.003906 L 195.449219 186.570312 " fill-opacity="1" fill-rule="nonzero"/><g clip-path="url(#4e14ad351f)"><path fill="#ff3131" d="M 226.925781 183.363281 L 231.558594 181.707031 C 230.574219 178.285156 229.074219 174.800781 227.097656 171.355469 L 220.9375 169.46875 C 218.320312 165.4375 214.96875 161.503906 210.984375 157.878906 L 210.984375 162.902344 C 219.058594 172.191406 221.796875 183.128906 216.917969 190.429688 C 210.445312 200.121094 193.015625 199.746094 177.992188 189.59375 C 162.964844 179.4375 156.035156 163.351562 162.507812 153.664062 C 167.277344 146.519531 178.003906 144.847656 189.332031 148.53125 L 189.332031 144.578125 C 186.28125 143.433594 183.246094 142.574219 180.28125 141.996094 L 176.214844 136.972656 C 172.300781 136.4375 168.527344 136.355469 165 136.734375 L 165.230469 141.671875 C 161.023438 142.4375 157.304688 144 154.332031 146.375 L 148.183594 143.996094 C 147.164062 145 146.238281 146.109375 145.429688 147.320312 C 144.621094 148.53125 143.949219 149.808594 143.410156 151.140625 L 147.921875 155.964844 C 146.863281 159.628906 146.828125 163.6875 147.714844 167.890625 L 143.082031 169.546875 C 144.066406 172.96875 145.570312 176.453125 147.542969 179.898438 L 153.703125 181.785156 C 156.460938 186.03125 160.023438 190.164062 164.292969 193.945312 L 163.890625 198.664062 C 165.601562 200.042969 167.394531 201.371094 169.273438 202.640625 C 171.152344 203.910156 173.054688 205.078125 174.972656 206.152344 L 179.164062 203.992188 C 184.257812 206.539062 189.410156 208.296875 194.359375 209.257812 L 198.425781 214.28125 C 202.34375 214.816406 206.113281 214.898438 209.640625 214.519531 L 209.410156 209.582031 C 213.617188 208.816406 217.335938 207.253906 220.3125 204.878906 L 226.457031 207.261719 C 227.480469 206.253906 228.402344 205.144531 229.210938 203.933594 C 230.019531 202.722656 230.691406 201.445312 231.234375 200.113281 L 226.71875 195.289062 C 227.777344 191.625 227.8125 187.566406 226.925781 183.363281 " fill-opacity="1" fill-rule="nonzero"/></g><g fill="#000000" fill-opacity="1"><g transform="translate(128.477662, 248.520423)"><g><path d="M 1.816406 0 L 13.742188 0 L 13.742188 -4.117188 L 6.355469 -4.117188 L 6.355469 -20.582031 L 1.816406 -20.582031 Z M 1.816406 0 "/></g></g></g><g fill="#000000" fill-opacity="1"><g transform="translate(143.279415, 248.520423)"><g><path d="M 6.355469 0 L 6.355469 -20.582031 L 1.816406 -20.582031 L 1.816406 0 Z M 6.355469 0 "/></g></g></g><g fill="#000000" fill-opacity="1"><g transform="translate(151.452167, 248.520423)"><g><path d="M 17.980469 0 L 17.980469 -20.582031 L 13.441406 -20.582031 L 13.441406 -7.75 L 6.355469 -20.582031 L 1.816406 -20.582031 L 1.816406 0 L 6.355469 0 L 6.355469 -12.835938 L 13.441406 0 Z M 17.980469 0 "/></g></g></g><g fill="#000000" fill-opacity="1"><g transform="translate(171.248384, 248.520423)"><g><path d="M 6.355469 -9.203125 L 12.863281 0 L 18.980469 0 L 10.777344 -10.292969 L 18.675781 -20.582031 L 12.863281 -20.582031 L 6.355469 -11.382812 L 6.355469 -20.582031 L 1.816406 -20.582031 L 1.816406 0 L 6.355469 0 Z M 6.355469 -9.203125 "/></g></g></g><g fill="#000000" fill-opacity="1"><g transform="translate(189.924626, 248.520423)"><g><path d="M 6.355469 -9.203125 L 12.863281 0 L 18.980469 0 L 10.777344 -10.292969 L 18.675781 -20.582031 L 12.863281 -20.582031 L 6.355469 -11.382812 L 6.355469 -20.582031 L 1.816406 -20.582031 L 1.816406 0 L 6.355469 0 Z M 6.355469 -9.203125 "/></g></g></g><g fill="#000000" fill-opacity="1"><g transform="translate(208.600867, 248.520423)"><g><path d="M 6.355469 0 L 6.355469 -20.582031 L 1.816406 -20.582031 L 1.816406 0 Z M 6.355469 0 "/></g></g></g><g fill="#000000" fill-opacity="1"><g transform="translate(216.773619, 248.520423)"><g><path d="M 17.980469 0 L 17.980469 -20.582031 L 13.441406 -20.582031 L 13.441406 -7.75 L 6.355469 -20.582031 L 1.816406 -20.582031 L 1.816406 0 L 6.355469 0 L 6.355469 -12.835938 L 13.441406 0 Z M 17.980469 0 "/></g></g></g><g fill="#000000" fill-opacity="1"><g transform="translate(236.569836, 248.520423)"><g><path d="M 12.109375 -16.648438 C 14.105469 -16.648438 16.164062 -15.832031 17.164062 -13.652344 L 22.15625 -13.652344 C 20.734375 -17.917969 16.648438 -20.886719 12.109375 -20.886719 C 6.296875 -20.886719 1.511719 -16.105469 1.511719 -10.292969 C 1.511719 -4.480469 6.296875 0.300781 12.109375 0.300781 C 17.980469 0.300781 22.671875 -4.449219 22.671875 -10.292969 L 22.671875 -10.988281 L 12.53125 -10.988281 L 12.53125 -7.566406 L 17.769531 -7.566406 C 16.648438 -4.449219 14.105469 -3.8125 12.109375 -3.8125 C 8.839844 -3.8125 6.113281 -6.75 6.113281 -10.230469 C 6.113281 -13.710938 8.839844 -16.648438 12.109375 -16.648438 Z M 12.109375 -16.648438 "/></g></g></g></svg>