<?xml version="1.0" encoding="utf-8"?>
<!-- Generator: Adobe Illustrator 21.0.0, SVG Export Plug-In . SVG Version: 6.00 Build 0)  -->
<svg version="1.1" id="Layer_1" xmlns="http://www.w3.org/2000/svg" xmlns:xlink="http://www.w3.org/1999/xlink" x="0px" y="0px"
	 viewBox="0 0 255.7 78.3" style="enable-background:new 0 0 255.7 78.3;" xml:space="preserve">
<style type="text/css">
	.st0{fill:#E72425;}
	.st1{fill:#010101;}
	.st2{fill-rule:evenodd;clip-rule:evenodd;fill:#E72425;}
	.st3{fill:#FFFFFF;}
</style>
<g>
	<g>
		<g>
			<path class="st0" d="M81.8,20.5c0-4.2,1.5-7.7,4.4-10.5c2.9-2.8,6.5-4.2,10.7-4.2c4.9,0,8.9,1.9,12,5.8l-4.3,3.2
				c-1.9-2.7-4.5-4.1-7.7-4.1c-2.7,0-4.9,1-6.8,2.9c-1.9,1.9-2.8,4.2-2.8,6.9c0,2.7,0.9,4.9,2.8,6.9c1.9,1.9,4.2,2.9,6.8,2.9
				c2.4,0,4.4-0.7,6.1-2.1c1.7-1.4,2.8-3.2,3.4-5.6h-9.6v-4.9H112v3.7c0,3-1.2,5.9-3.5,8.6c-2.9,3.4-6.8,5.2-11.7,5.2
				c-4.2,0-7.8-1.4-10.7-4.2C83.3,28.2,81.8,24.7,81.8,20.5"/>
			<polygon class="st0" points="118.6,34.6 118.6,22.6 115.3,22.6 115.3,17.7 118.6,17.7 118.6,6.4 140.2,6.4 140.2,11.4 
				123.8,11.4 123.8,17.7 135.3,17.7 135.3,22.6 123.8,22.6 123.8,29.6 140.2,29.6 140.2,34.6 			"/>
			<path class="st0" d="M142.9,34.6l10.3-23.5h-6.5V6.4h11.7l11.9,28.1h-5.6l-2.1-5.3h-11.9l-2.2,5.3H142.9z M152.5,24.6h8.2
				l-4.1-10L152.5,24.6z"/>
			<path class="st0" d="M175.4,34.6v-8.9H172v-4.9h3.4V6.4h13.4c3,0,5.4,0.9,7.3,2.6c1.9,1.7,2.8,4.1,2.8,7c0,2-0.6,3.8-1.8,5.3
				c-1.2,1.5-2.8,2.6-4.8,3.2l7,10h-6.5l-5.9-8.9h-6.4v8.9H175.4z M180.6,11.4v9.4h7.8c1.5,0,2.8-0.4,3.8-1.2c1-0.8,1.5-2,1.5-3.5
				c0-1.5-0.5-2.7-1.5-3.5c-1-0.8-2.3-1.2-3.8-1.2H180.6z"/>
			<polygon class="st0" points="213.8,35.2 201.3,6.4 206.9,6.4 213.8,23.6 220.6,6.4 226.2,6.4 			"/>
			<polygon class="st0" points="253.9,35.2 235.7,17.3 235.7,34.6 230.5,34.6 230.5,5.9 248.7,23.7 248.7,6.4 253.9,6.4 			"/>
			<path class="st1" d="M99.3,46.5c0-1.3,0.4-2.4,1.3-3.2c0.9-0.9,2-1.3,3.3-1.3c1.5,0,2.7,0.6,3.7,1.8l-1.3,1
				c-0.6-0.8-1.4-1.2-2.4-1.2c-0.8,0-1.5,0.3-2.1,0.9c-0.6,0.6-0.9,1.3-0.9,2.1c0,0.8,0.3,1.5,0.9,2.1c0.6,0.6,1.3,0.9,2.1,0.9
				c0.7,0,1.4-0.2,1.9-0.6c0.5-0.4,0.9-1,1-1.7h-2.9v-1.5h4.6v1.1c0,0.9-0.4,1.8-1.1,2.6c-0.9,1.1-2.1,1.6-3.6,1.6
				c-1.3,0-2.4-0.4-3.3-1.3C99.8,48.9,99.3,47.8,99.3,46.5"/>
			<polygon class="st1" points="116.2,50.9 116.2,47.2 115.2,47.2 115.2,45.7 116.2,45.7 116.2,42.2 122.8,42.2 122.8,43.7 
				117.8,43.7 117.8,45.7 121.3,45.7 121.3,47.2 117.8,47.2 117.8,49.3 122.8,49.3 122.8,50.9 			"/>
			<path class="st1" d="M129.2,50.9l3.1-7.2h-2v-1.4h3.6l3.7,8.6h-1.7l-0.7-1.6h-3.7l-0.7,1.6H129.2z M132.2,47.8h2.5l-1.2-3.1
				L132.2,47.8z"/>
			<path class="st1" d="M144.8,50.9v-2.7h-1v-1.5h1v-4.4h4.1c0.9,0,1.7,0.3,2.2,0.8c0.6,0.5,0.9,1.3,0.9,2.2c0,0.6-0.2,1.2-0.6,1.6
				c-0.4,0.5-0.9,0.8-1.5,1l2.2,3.1h-2l-1.8-2.7h-2v2.7H144.8z M146.4,43.7v2.9h2.4c0.5,0,0.9-0.1,1.2-0.4c0.3-0.3,0.5-0.6,0.5-1.1
				c0-0.5-0.2-0.8-0.5-1.1c-0.3-0.2-0.7-0.4-1.2-0.4H146.4z"/>
			<polygon class="st1" points="162.2,51 158.3,42.2 160.1,42.2 162.2,47.5 164.3,42.2 166,42.2 			"/>
			<polygon class="st1" points="180,51 174.5,45.6 174.5,50.9 172.9,50.9 172.9,42 178.4,47.5 178.4,42.2 180,42.2 			"/>
			<path class="st1" d="M187.9,50.2c0-0.2,0.1-0.4,0.2-0.6c0.2-0.2,0.4-0.2,0.6-0.2c0.2,0,0.4,0.1,0.6,0.2c0.2,0.2,0.2,0.4,0.2,0.6
				c0,0.2-0.1,0.4-0.2,0.6c-0.2,0.2-0.4,0.2-0.6,0.2c-0.2,0-0.4-0.1-0.6-0.2C188,50.6,187.9,50.4,187.9,50.2"/>
			<path class="st1" d="M204,48.3l1.3,0.9c-0.9,1.2-2.2,1.8-3.7,1.8c-1.3,0-2.4-0.4-3.3-1.3c-0.9-0.9-1.3-1.9-1.3-3.2
				c0-1.3,0.4-2.4,1.3-3.2c0.9-0.9,2-1.3,3.3-1.3c1.5,0,2.7,0.6,3.7,1.8l-1.3,1c-0.6-0.8-1.4-1.2-2.4-1.2c-0.8,0-1.5,0.3-2.1,0.9
				c-0.6,0.6-0.9,1.3-0.9,2.1c0,0.8,0.3,1.5,0.9,2.1c0.6,0.6,1.3,0.9,2.1,0.9C202.6,49.5,203.4,49.1,204,48.3"/>
			<path class="st1" d="M212.1,46.5c0-1.3,0.5-2.4,1.3-3.2c0.9-0.9,2-1.3,3.3-1.3c1.3,0,2.4,0.4,3.3,1.3c0.9,0.9,1.3,1.9,1.3,3.2
				c0,1.3-0.4,2.4-1.3,3.2c-0.9,0.9-2,1.3-3.3,1.3c-1.3,0-2.4-0.4-3.3-1.3C212.5,48.9,212.1,47.8,212.1,46.5 M213.7,46.5
				c0,0.8,0.3,1.5,0.9,2.1c0.6,0.6,1.3,0.9,2.1,0.9c0.8,0,1.5-0.3,2.1-0.9c0.6-0.6,0.9-1.3,0.9-2.1c0-0.8-0.3-1.5-0.9-2.1
				c-0.6-0.6-1.3-0.9-2.1-0.9c-0.8,0-1.5,0.3-2.1,0.9C214,45,213.7,45.7,213.7,46.5"/>
			<polygon class="st1" points="228.7,50.9 228.7,42 232.5,45.9 236.4,42 236.4,50.9 234.8,50.9 234.8,45.5 232.5,47.8 230.3,45.5 
				230.3,50.9 			"/>
		</g>
		<g>
			<polygon class="st0" points="71.8,0 71.5,0 0,0 22.8,39.5 42.9,39.5 51.8,24 55.3,23.9 58,23.9 61.4,17.9 39.3,18 35.9,23.9 
				41.3,23.9 32.9,38.2 19.4,12 64.9,12 			"/>
			<polygon class="st1" points="32.8,56.9 42.1,40.7 23.5,40.7 			"/>
		</g>
	</g>
	<rect y="64.2" class="st2" width="255.7" height="14.1"/>
	<g>
		<path class="st3" d="M13.1,74.2c-0.2,0.3-0.5,0.6-1,0.8c-0.5,0.2-1.1,0.4-1.8,0.4c-0.9,0-1.7-0.3-2.3-0.9C7.3,73.9,7,73.1,7,72.1
			v-1.6c0-0.9,0.3-1.7,0.9-2.3c0.6-0.6,1.3-0.9,2.2-0.9c0.9,0,1.6,0.2,2.1,0.7c0.5,0.5,0.8,1,0.8,1.8l0,0h-1.2c0-0.4-0.2-0.8-0.5-1
			c-0.3-0.3-0.7-0.4-1.2-0.4c-0.5,0-1,0.2-1.3,0.6c-0.3,0.4-0.5,0.9-0.5,1.5v1.6c0,0.6,0.2,1.1,0.5,1.6c0.4,0.4,0.8,0.6,1.4,0.6
			c0.4,0,0.7,0,1-0.1s0.4-0.2,0.6-0.3v-1.6h-1.6v-1h2.9V74.2z"/>
		<path class="st3" d="M21.1,71.7h-3.4v2.5h4v1h-5.3v-7.8h5.2v1h-3.9v2.2h3.4V71.7z"/>
		<path class="st3" d="M28.6,73.4h-3.1L25,75.2h-1.3l2.9-7.8h1.2l2.8,7.8h-1.3L28.6,73.4z M26,72.3h2.3L27.1,69h0L26,72.3z"/>
		<path class="st3" d="M34.5,72v3.2h-1.3v-7.8H36c0.9,0,1.5,0.2,2,0.6s0.7,1,0.7,1.7c0,0.4-0.1,0.8-0.3,1c-0.2,0.3-0.5,0.5-0.9,0.7
			c0.4,0.1,0.8,0.4,1,0.7c0.2,0.3,0.3,0.7,0.3,1.2v0.6c0,0.2,0,0.5,0.1,0.7s0.2,0.4,0.3,0.5v0.1h-1.3c-0.1-0.1-0.2-0.3-0.3-0.6
			c0-0.3-0.1-0.5-0.1-0.7v-0.6c0-0.4-0.1-0.7-0.3-1S36.6,72,36.2,72H34.5z M34.5,70.9H36c0.5,0,0.9-0.1,1.1-0.3s0.4-0.5,0.4-0.9
			c0-0.4-0.1-0.7-0.4-0.9c-0.2-0.2-0.6-0.3-1.1-0.3h-1.6V70.9z"/>
		<path class="st3" d="M44.5,73.2l0.1,0.5h0l0.1-0.5l1.9-5.8H48l-2.8,7.8H44l-2.8-7.8h1.4L44.5,73.2z"/>
		<path class="st3" d="M56.7,75.2h-1.3l-3.5-5.7l0,0v5.7h-1.3v-7.8h1.3l3.5,5.7l0,0v-5.7h1.3V75.2z"/>
		<path class="st3" d="M66.8,72.4H64v-1h2.8V72.4z"/>
		<path class="st3" d="M80.2,75.2h-1.3v-3.3h-3.5v3.3h-1.3v-7.8h1.3v3.4h3.5v-3.4h1.3V75.2z"/>
		<path class="st3" d="M85,75.2h-1.3v-7.8H85V75.2z"/>
		<path class="st3" d="M97.5,71.7h-3.4v2.5h4v1h-5.3v-7.8H98v1h-3.9v2.2h3.4V71.7z"/>
		<path class="st3" d="M106.9,75.2h-1.3l-3.5-5.7l0,0v5.7h-1.3v-7.8h1.3l3.5,5.7l0,0v-5.7h1.3V75.2z"/>
		<path class="st3" d="M110.3,75.2v-7.8h2.5c1,0,1.8,0.3,2.4,0.9c0.6,0.6,0.9,1.4,0.9,2.4v1.2c0,1-0.3,1.8-0.9,2.4
			c-0.6,0.6-1.4,0.9-2.4,0.9H110.3z M111.6,68.5v5.7h1.2c0.6,0,1.2-0.2,1.5-0.6c0.4-0.4,0.6-1,0.6-1.6v-1.2c0-0.7-0.2-1.2-0.6-1.6
			c-0.4-0.4-0.9-0.6-1.5-0.6H111.6z"/>
		<path class="st3" d="M124.9,72.3v3h-1.3v-7.8h3.1c0.9,0,1.5,0.2,2,0.7c0.5,0.4,0.7,1,0.7,1.8c0,0.7-0.2,1.3-0.7,1.8
			c-0.5,0.4-1.2,0.7-2,0.7H124.9z M124.9,71.2h1.8c0.5,0,0.8-0.1,1.1-0.4s0.4-0.6,0.4-1s-0.1-0.7-0.4-1s-0.6-0.4-1.1-0.4h-1.8V71.2z
			"/>
		<path class="st3" d="M138,72.6L138,72.6c0,0.8-0.2,1.5-0.8,2c-0.5,0.5-1.2,0.7-2.1,0.7c-0.9,0-1.7-0.3-2.2-0.9
			c-0.6-0.6-0.9-1.4-0.9-2.4v-1.5c0-1,0.3-1.7,0.8-2.4c0.6-0.6,1.3-0.9,2.2-0.9c0.9,0,1.7,0.2,2.2,0.7c0.5,0.5,0.8,1.1,0.8,2l0,0
			h-1.3c0-0.5-0.1-0.9-0.4-1.2c-0.3-0.3-0.7-0.4-1.3-0.4c-0.5,0-1,0.2-1.3,0.6c-0.3,0.4-0.5,1-0.5,1.6v1.5c0,0.6,0.2,1.2,0.5,1.6
			c0.3,0.4,0.8,0.6,1.3,0.6c0.5,0,1-0.1,1.2-0.4s0.4-0.7,0.4-1.2H138z"/>
		<path class="st3" d="M144.8,73.1c0-0.4,0.1-0.8,0.4-1.1c0.2-0.3,0.6-0.6,1.1-1c-0.3-0.3-0.5-0.6-0.6-0.9s-0.2-0.6-0.2-0.8
			c0-0.6,0.2-1.1,0.6-1.4c0.4-0.4,0.9-0.5,1.5-0.5c0.6,0,1,0.2,1.4,0.5c0.4,0.3,0.5,0.8,0.5,1.2c0,0.4-0.1,0.7-0.3,0.9
			c-0.2,0.3-0.4,0.5-0.8,0.8l-0.5,0.4l1.6,1.9c0.1-0.2,0.3-0.5,0.3-0.7c0.1-0.3,0.1-0.6,0.1-0.9h1.1c0,0.5-0.1,0.9-0.2,1.4
			c-0.1,0.4-0.3,0.8-0.6,1.1l1.1,1.2l0,0h-1.5l-0.4-0.5c-0.3,0.2-0.6,0.4-0.9,0.5c-0.3,0.1-0.7,0.2-1.1,0.2c-0.8,0-1.4-0.2-1.9-0.6
			S144.8,73.8,144.8,73.1z M147.4,74.3c0.2,0,0.4,0,0.7-0.1s0.4-0.2,0.6-0.3l-1.8-2.1l-0.2,0.1c-0.3,0.2-0.4,0.4-0.5,0.6
			c-0.1,0.2-0.1,0.4-0.1,0.5c0,0.4,0.1,0.6,0.3,0.9C146.7,74.2,147,74.3,147.4,74.3z M146.7,69.3c0,0.2,0,0.3,0.1,0.5
			c0.1,0.2,0.2,0.4,0.4,0.6l0.6-0.4c0.2-0.1,0.3-0.3,0.4-0.4c0.1-0.1,0.1-0.3,0.1-0.5c0-0.2-0.1-0.4-0.2-0.5
			c-0.2-0.2-0.4-0.2-0.6-0.2c-0.3,0-0.5,0.1-0.6,0.3C146.8,68.8,146.7,69,146.7,69.3z"/>
		<path class="st3" d="M164.2,74.2c-0.2,0.3-0.5,0.6-1,0.8c-0.5,0.2-1.1,0.4-1.8,0.4c-0.9,0-1.7-0.3-2.3-0.9
			c-0.6-0.6-0.9-1.4-0.9-2.3v-1.6c0-0.9,0.3-1.7,0.9-2.3c0.6-0.6,1.3-0.9,2.2-0.9c0.9,0,1.6,0.2,2.1,0.7c0.5,0.5,0.8,1,0.8,1.8l0,0
			h-1.2c0-0.4-0.2-0.8-0.5-1c-0.3-0.3-0.7-0.4-1.2-0.4c-0.5,0-1,0.2-1.3,0.6c-0.3,0.4-0.5,0.9-0.5,1.5v1.6c0,0.6,0.2,1.1,0.5,1.6
			c0.4,0.4,0.8,0.6,1.4,0.6c0.4,0,0.7,0,1-0.1s0.4-0.2,0.6-0.3v-1.6h-1.6v-1h2.9V74.2z"/>
		<path class="st3" d="M171.7,73.4h-3.1l-0.6,1.8h-1.3l2.9-7.8h1.2l2.8,7.8h-1.3L171.7,73.4z M169,72.3h2.3l-1.1-3.3h0L169,72.3z"/>
		<path class="st3" d="M177.9,67.4l2.3,6h0l2.3-6h1.7v7.8h-1.3v-2.7l0.1-3.4l0,0l-2.3,6.1h-0.9l-2.3-6l0,0l0.1,3.4v2.7h-1.3v-7.8
			H177.9z"/>
		<path class="st3" d="M188.9,75.2h-1.3v-7.8h1.3V75.2z"/>
		<path class="st3" d="M198.4,75.2h-1.3l-3.5-5.7l0,0v5.7h-1.3v-7.8h1.3l3.5,5.7l0,0v-5.7h1.3V75.2z"/>
		<path class="st3" d="M207.6,74.2c-0.2,0.3-0.5,0.6-1,0.8c-0.5,0.2-1.1,0.4-1.8,0.4c-0.9,0-1.7-0.3-2.3-0.9
			c-0.6-0.6-0.9-1.4-0.9-2.3v-1.6c0-0.9,0.3-1.7,0.9-2.3c0.6-0.6,1.3-0.9,2.2-0.9c0.9,0,1.6,0.2,2.1,0.7c0.5,0.5,0.8,1,0.8,1.8l0,0
			h-1.2c0-0.4-0.2-0.8-0.5-1c-0.3-0.3-0.7-0.4-1.2-0.4c-0.5,0-1,0.2-1.3,0.6c-0.3,0.4-0.5,0.9-0.5,1.5v1.6c0,0.6,0.2,1.1,0.5,1.6
			c0.4,0.4,0.8,0.6,1.4,0.6c0.4,0,0.7,0,1-0.1s0.4-0.2,0.6-0.3v-1.6h-1.6v-1h2.9V74.2z"/>
		<path class="st3" d="M221.1,74.2c-0.2,0.3-0.5,0.6-1,0.8c-0.5,0.2-1.1,0.4-1.8,0.4c-0.9,0-1.7-0.3-2.3-0.9
			c-0.6-0.6-0.9-1.4-0.9-2.3v-1.6c0-0.9,0.3-1.7,0.9-2.3c0.6-0.6,1.3-0.9,2.2-0.9c0.9,0,1.6,0.2,2.1,0.7c0.5,0.5,0.8,1,0.8,1.8l0,0
			h-1.2c0-0.4-0.2-0.8-0.5-1c-0.3-0.3-0.7-0.4-1.2-0.4c-0.5,0-1,0.2-1.3,0.6c-0.3,0.4-0.5,0.9-0.5,1.5v1.6c0,0.6,0.2,1.1,0.5,1.6
			c0.4,0.4,0.8,0.6,1.4,0.6c0.4,0,0.7,0,1-0.1s0.4-0.2,0.6-0.3v-1.6h-1.6v-1h2.9V74.2z"/>
		<path class="st3" d="M229.1,71.7h-3.4v2.5h4v1h-5.3v-7.8h5.2v1h-3.9v2.2h3.4V71.7z"/>
		<path class="st3" d="M236.6,73.4h-3.1l-0.6,1.8h-1.3l2.9-7.8h1.2l2.8,7.8h-1.3L236.6,73.4z M233.9,72.3h2.3l-1.1-3.3h0L233.9,72.3
			z"/>
		<path class="st3" d="M242.4,72v3.2h-1.3v-7.8h2.9c0.9,0,1.5,0.2,2,0.6s0.7,1,0.7,1.7c0,0.4-0.1,0.8-0.3,1
			c-0.2,0.3-0.5,0.5-0.9,0.7c0.4,0.1,0.8,0.4,1,0.7c0.2,0.3,0.3,0.7,0.3,1.2v0.6c0,0.2,0,0.5,0.1,0.7s0.2,0.4,0.3,0.5v0.1h-1.3
			c-0.1-0.1-0.2-0.3-0.3-0.6c0-0.3-0.1-0.5-0.1-0.7v-0.6c0-0.4-0.1-0.7-0.3-1s-0.5-0.4-0.9-0.4H242.4z M242.4,70.9h1.5
			c0.5,0,0.9-0.1,1.1-0.3s0.4-0.5,0.4-0.9c0-0.4-0.1-0.7-0.4-0.9c-0.2-0.2-0.6-0.3-1.1-0.3h-1.6V70.9z"/>
	</g>
</g>
</svg>
