<svg width="20" height="20" viewBox="0 0 20 20" fill="none" xmlns="http://www.w3.org/2000/svg">
<path fill-rule="evenodd" clip-rule="evenodd" d="M3.33301 4.16667C2.87658 4.16667 2.49967 4.54357 2.49967 5V15C2.49967 15.4564 2.87658 15.8333 3.33301 15.8333H16.6663C17.1228 15.8333 17.4997 15.4564 17.4997 15V5C17.4997 4.54357 17.1228 4.16667 16.6663 4.16667H3.33301ZM0.833008 5C0.833008 3.6231 1.9561 2.5 3.33301 2.5H16.6663C18.0432 2.5 19.1663 3.6231 19.1663 5V15C19.1663 16.3769 18.0432 17.5 16.6663 17.5H3.33301C1.9561 17.5 0.833008 16.3769 0.833008 15V5Z" fill="#A9A9B2"/>
<path fill-rule="evenodd" clip-rule="evenodd" d="M0.983719 4.52208C1.24765 4.14504 1.76726 4.05335 2.1443 4.31728L9.99975 9.81609L17.8552 4.31728C18.2322 4.05335 18.7518 4.14504 19.0158 4.52208C19.2797 4.89913 19.188 5.41873 18.811 5.68266L10.4776 11.516C10.1907 11.7169 9.80879 11.7169 9.52186 11.516L1.18853 5.68266C0.811486 5.41873 0.719791 4.89913 0.983719 4.52208Z" fill="#A9A9B2"/>
</svg>
