<svg width="823" height="437" viewBox="0 0 823 437" fill="none" xmlns="http://www.w3.org/2000/svg">
<path d="M752 425.554H603.381V248.173H752V425.554Z" fill="white"/>
<path d="M752 425.554H603.381V248.173H752V425.554ZM604.57 424.259H750.811V249.468H604.57V424.259Z" fill="#3F3D56"/>
<path d="M731.788 408.801H700.875V410.165H731.788V408.801Z" fill="#3F3D56"/>
<path d="M731.788 412.895H700.875V414.259H731.788V412.895Z" fill="#3F3D56"/>
<path d="M731.788 416.989H700.875V418.354H731.788V416.989Z" fill="#3F3D56"/>
<path d="M677.689 279.894V294.137C685.449 294.137 693.035 296.642 699.487 301.337C705.94 306.032 710.969 312.705 713.938 320.512C716.908 328.32 717.685 336.911 716.171 345.199C714.657 353.487 710.92 361.1 705.433 367.076L714.681 377.146C721.997 369.179 726.98 359.028 728.998 347.977C731.017 336.926 729.981 325.472 726.021 315.062C722.062 304.652 715.356 295.755 706.754 289.495C698.151 283.235 688.036 279.894 677.689 279.894Z" fill="#E6E6E6"/>
<path d="M714.681 377.146L705.433 367.076C698.725 374.382 689.813 378.793 680.347 379.492C670.882 380.191 661.504 377.13 653.952 370.877L646.036 382.219C656.107 390.555 668.611 394.634 681.232 393.702C693.853 392.769 705.736 386.887 714.681 377.146Z" fill="#232F43"/>
<path d="M638.454 336.863C638.454 331.252 639.469 325.696 641.44 320.512C643.412 315.329 646.302 310.618 649.946 306.651C653.589 302.683 657.914 299.536 662.674 297.389C667.435 295.242 672.537 294.136 677.689 294.136V279.894C666.738 279.894 656.063 283.637 647.168 290.594C638.274 297.552 631.609 307.374 628.113 318.676C624.617 329.978 624.466 342.189 627.681 353.589C630.896 364.989 637.316 375.003 646.035 382.219L653.951 370.877C649.131 366.896 645.224 361.753 642.535 355.852C639.846 349.95 638.449 343.451 638.454 336.863Z" fill="#216CE3"/>
<path d="M529.02 415.656C516.124 425.774 499.411 426.282 483.257 425.039C481.001 424.865 478.761 424.662 476.542 424.443C476.529 424.439 476.511 424.44 476.497 424.436C476.391 424.425 476.284 424.414 476.182 424.408C475.724 424.361 475.266 424.314 474.812 424.267L474.919 424.49L475.255 425.181C475.135 424.95 475.014 424.724 474.893 424.492C474.857 424.423 474.817 424.354 474.782 424.284C470.597 416.354 466.446 408.132 465.388 399.076C464.293 389.677 467.369 379.033 474.966 374.413C475.962 373.809 477.017 373.328 478.111 372.979C478.566 372.828 479.026 372.706 479.492 372.598C482.341 371.91 485.307 372.059 488.085 373.033C490.863 374.006 493.353 375.767 495.299 378.136C497.245 380.505 498.577 383.395 499.157 386.51C499.737 389.625 499.544 392.851 498.6 395.858C505.04 388.666 503.839 376.999 501.617 367.249C499.391 357.498 496.696 346.648 501.224 337.89C503.741 333.015 508.166 329.991 513.133 328.772C513.286 328.737 513.438 328.701 513.59 328.67C519.508 327.365 525.661 328.539 530.818 331.957C540.315 338.475 545.193 350.831 546.776 362.936C549.327 382.414 543.682 404.153 529.02 415.656Z" fill="#F2F2F2"/>
<path d="M524.856 384.432C524.482 388.728 523.534 392.942 522.043 396.941C520.669 400.48 518.816 403.774 516.547 406.716C511.83 412.729 505.856 417.42 499.127 420.395C494.038 422.665 488.706 424.225 483.257 425.039C481.001 424.865 478.761 424.662 476.542 424.443C476.529 424.439 476.511 424.44 476.498 424.436C476.391 424.425 476.284 424.414 476.182 424.408C475.724 424.361 475.266 424.314 474.812 424.267L474.919 424.49L475.256 425.181C475.135 424.95 475.014 424.723 474.893 424.492C474.857 424.423 474.818 424.354 474.782 424.284C478.867 419.852 481.917 414.418 483.676 408.438C485.436 402.458 485.853 396.106 484.894 389.914C483.89 383.766 481.566 377.963 478.111 372.979C478.566 372.828 479.026 372.706 479.492 372.598C480.805 374.553 481.956 376.63 482.933 378.806C486.439 386.564 487.557 395.346 486.123 403.85C484.789 411.546 481.467 418.668 476.547 424.38C476.978 424.347 477.413 424.308 477.839 424.266C485.902 423.522 493.95 421.634 501.264 417.767C507.516 414.542 512.943 409.693 517.069 403.645C521.498 396.993 523.45 388.99 523.786 380.857C524.044 372.095 523.2 363.336 521.279 354.822C519.416 346.141 516.584 337.741 512.847 329.81C512.763 329.63 512.746 329.422 512.8 329.229C512.853 329.036 512.973 328.872 513.133 328.772C513.267 328.674 513.432 328.637 513.591 328.67C513.668 328.692 513.74 328.734 513.801 328.791C513.863 328.848 513.911 328.919 513.943 328.999C514.404 329.979 514.857 330.959 515.292 331.951C518.917 340.209 521.585 348.926 523.237 357.9C524.84 366.558 525.695 375.615 524.856 384.432Z" fill="white"/>
<path d="M142.658 135.232C142.377 135.232 142.098 135.153 141.836 135.001C141.412 134.76 141.048 134.332 140.791 133.776C140.535 133.219 140.399 132.56 140.401 131.886V96.9626C140.4 95.7805 140.083 94.6472 139.52 93.8113C138.957 92.9754 138.194 92.5052 137.398 92.5038H132.581C130.591 92.5005 128.683 91.3253 127.276 89.236C125.869 87.1466 125.077 84.3139 125.075 81.3591V11.1447C125.077 8.18994 125.869 5.35718 127.276 3.26786C128.683 1.17855 130.591 0.00331152 132.581 0H302.477C304.467 0.00331545 306.375 1.17855 307.782 3.26786C309.19 5.35718 309.981 8.18994 309.983 11.1447V81.3591C309.981 84.3139 309.19 87.1466 307.782 89.2359C306.375 91.3252 304.467 92.5005 302.477 92.5038H171.342C170.925 92.5045 170.514 92.6334 170.133 92.8823C169.752 93.1311 169.41 93.4946 169.128 93.9497L144.312 134.145C144.103 134.487 143.847 134.76 143.563 134.947C143.278 135.135 142.97 135.232 142.658 135.232ZM132.581 1.48504C130.856 1.48793 129.203 2.50657 127.983 4.31748C126.763 6.12839 126.077 8.58367 126.075 11.1447V81.3591C126.077 83.9201 126.763 86.3754 127.983 88.1863C129.203 89.9972 130.856 91.0159 132.581 91.0188H137.398C138.459 91.0206 139.477 91.6473 140.227 92.7616C140.978 93.8759 141.4 95.3867 141.401 96.9625V131.886C141.401 132.26 141.477 132.626 141.619 132.935C141.762 133.244 141.964 133.482 142.199 133.617C142.434 133.753 142.691 133.78 142.936 133.695C143.182 133.61 143.405 133.417 143.575 133.141L168.391 92.9461C168.766 92.3394 169.222 91.8549 169.73 91.5232C170.238 91.1915 170.787 91.0197 171.342 91.0188H302.477C304.202 91.0159 305.856 89.9972 307.075 88.1863C308.295 86.3754 308.981 83.9201 308.983 81.3591V11.1447C308.981 8.58367 308.295 6.12839 307.075 4.31748C305.856 2.50657 304.202 1.48793 302.477 1.48504H132.581Z" fill="#CCCCCC"/>
<path d="M143.838 31.9504C147.418 31.9504 150.32 27.4594 150.32 21.9195C150.32 16.3795 147.418 11.8885 143.838 11.8885C140.258 11.8885 137.356 16.3795 137.356 21.9195C137.356 27.4594 140.258 31.9504 143.838 31.9504Z" fill="#CCCCCC"/>
<path d="M294.207 75.7894H140.17C139.711 75.7902 139.257 75.6562 138.833 75.3952C138.409 75.1342 138.023 74.7512 137.699 74.2682C137.374 73.7851 137.117 73.2114 136.941 72.58C136.765 71.9486 136.675 71.2717 136.675 70.5881C136.675 69.9046 136.765 69.2277 136.941 68.5963C137.117 67.9648 137.374 67.3912 137.699 66.9081C138.023 66.4251 138.409 66.0421 138.833 65.781C139.257 65.52 139.711 65.3861 140.17 65.3869H294.207C294.666 65.3861 295.12 65.52 295.544 65.781C295.968 66.0421 296.353 66.4251 296.678 66.9081C297.002 67.3912 297.26 67.9648 297.436 68.5963C297.611 69.2277 297.702 69.9046 297.702 70.5881C297.702 71.2717 297.611 71.9486 297.436 72.58C297.26 73.2114 297.002 73.7851 296.678 74.2682C296.353 74.7512 295.968 75.1342 295.544 75.3952C295.12 75.6562 294.666 75.7902 294.207 75.7894Z" fill="#CCCCCC"/>
<path d="M243.725 53.4984H140.16C139.703 53.4992 139.249 53.3653 138.827 53.1043C138.404 52.8432 138.019 52.4603 137.696 51.9772C137.372 51.4941 137.115 50.9205 136.94 50.289C136.765 49.6576 136.675 48.9807 136.675 48.2972C136.675 47.6136 136.765 46.9368 136.94 46.3053C137.115 45.6739 137.372 45.1002 137.696 44.6172C138.019 44.1341 138.404 43.7511 138.827 43.4901C139.249 43.2291 139.703 43.0951 140.16 43.096H243.725C244.182 43.0951 244.636 43.2291 245.058 43.4901C245.481 43.7511 245.865 44.1341 246.189 44.6172C246.513 45.1002 246.77 45.6739 246.945 46.3053C247.12 46.9368 247.21 47.6136 247.21 48.2972C247.21 48.9807 247.12 49.6576 246.945 50.289C246.77 50.9205 246.513 51.4941 246.189 51.9772C245.865 52.4603 245.481 52.8432 245.058 53.1043C244.636 53.3653 244.182 53.4992 243.725 53.4984Z" fill="#CCCCCC"/>
<path d="M142.658 383.405C142.377 383.405 142.098 383.326 141.836 383.175C141.412 382.933 141.048 382.505 140.791 381.949C140.535 381.392 140.399 380.733 140.401 380.059V345.136C140.4 343.954 140.083 342.82 139.52 341.984C138.957 341.148 138.194 340.678 137.398 340.677H132.581C130.591 340.674 128.683 339.498 127.276 337.409C125.869 335.32 125.077 332.487 125.075 329.532V259.318C125.077 256.363 125.869 253.53 127.276 251.441C128.683 249.352 130.591 248.176 132.581 248.173H302.477C304.467 248.176 306.375 249.352 307.782 251.441C309.19 253.53 309.981 256.363 309.983 259.318V329.532C309.981 332.487 309.19 335.32 307.782 337.409C306.375 339.498 304.467 340.674 302.477 340.677H171.342C170.925 340.678 170.514 340.806 170.133 341.055C169.752 341.304 169.41 341.668 169.128 342.123L144.312 382.318C144.103 382.66 143.847 382.933 143.563 383.12C143.278 383.308 142.97 383.405 142.658 383.405ZM132.581 249.658C130.856 249.661 129.203 250.68 127.983 252.49C126.763 254.301 126.077 256.757 126.075 259.318V329.532C126.077 332.093 126.763 334.549 127.983 336.359C129.203 338.17 130.856 339.189 132.581 339.192H137.398C138.459 339.194 139.477 339.82 140.227 340.935C140.978 342.049 141.4 343.56 141.401 345.136V380.059C141.401 380.433 141.477 380.799 141.619 381.108C141.762 381.417 141.964 381.655 142.199 381.79C142.434 381.926 142.691 381.953 142.936 381.868C143.182 381.783 143.405 381.59 143.575 381.314L168.391 341.119C168.766 340.513 169.222 340.028 169.73 339.696C170.238 339.365 170.787 339.193 171.342 339.192H302.477C304.202 339.189 305.856 338.17 307.075 336.359C308.295 334.549 308.981 332.093 308.983 329.532V259.318C308.981 256.757 308.295 254.301 307.075 252.491C305.856 250.68 304.202 249.661 302.477 249.658L132.581 249.658Z" fill="#CCCCCC"/>
<path d="M392.766 254.117C392.456 254.117 392.149 254.02 391.865 253.833C391.582 253.646 391.327 253.372 391.119 253.03L366.394 212.835C366.114 212.38 365.773 212.016 365.393 211.768C365.014 211.519 364.604 211.39 364.189 211.389H233.537C231.555 211.386 229.654 210.211 228.252 208.121C226.85 206.032 226.061 203.199 226.059 200.244V130.03C226.061 127.075 226.85 124.243 228.252 122.153C229.654 120.064 231.555 118.889 233.537 118.885H402.806C404.789 118.889 406.69 120.064 408.092 122.153C409.494 124.242 410.283 127.075 410.285 130.03V200.244C410.283 203.199 409.494 206.032 408.092 208.121C406.69 210.211 404.789 211.386 402.806 211.389H398.007C397.214 211.391 396.454 211.861 395.893 212.697C395.332 213.532 395.017 214.666 395.016 215.848V250.771C395.018 251.445 394.882 252.104 394.626 252.661C394.371 253.217 394.008 253.645 393.586 253.886C393.324 254.039 393.047 254.117 392.766 254.117ZM233.537 120.37C231.819 120.373 230.171 121.392 228.956 123.203C227.741 125.014 227.057 127.469 227.055 130.03V200.244C227.057 202.805 227.741 205.261 228.956 207.072C230.171 208.883 231.819 209.901 233.537 209.904H364.189C364.742 209.905 365.288 210.077 365.794 210.408C366.3 210.74 366.755 211.225 367.129 211.831L391.853 252.026C392.023 252.302 392.245 252.495 392.489 252.58C392.734 252.665 392.99 252.638 393.224 252.503C393.458 252.367 393.66 252.129 393.801 251.82C393.943 251.511 394.019 251.145 394.019 250.771V215.848C394.02 214.272 394.441 212.761 395.189 211.647C395.936 210.533 396.95 209.906 398.007 209.904H402.806C404.525 209.901 406.172 208.883 407.388 207.072C408.603 205.261 409.286 202.805 409.288 200.244V130.03C409.286 127.469 408.603 125.014 407.388 123.203C406.172 121.392 404.525 120.373 402.806 120.37L233.537 120.37Z" fill="#232F43"/>
<path d="M143.838 279.38C147.418 279.38 150.32 275.056 150.32 269.721C150.32 264.386 147.418 260.062 143.838 260.062C140.258 260.062 137.356 264.386 137.356 269.721C137.356 275.056 140.258 279.38 143.838 279.38Z" fill="#CCCCCC"/>
<path d="M294.211 323.962H140.17C139.711 323.963 139.257 323.829 138.833 323.568C138.409 323.307 138.023 322.924 137.699 322.441C137.374 321.958 137.117 321.384 136.941 320.753C136.765 320.122 136.675 319.445 136.675 318.761C136.675 318.078 136.765 317.401 136.941 316.769C137.117 316.138 137.374 315.564 137.699 315.081C138.023 314.598 138.409 314.215 138.833 313.954C139.257 313.693 139.711 313.559 140.17 313.56H294.211C295.137 313.56 296.025 314.108 296.679 315.083C297.334 316.059 297.702 317.382 297.702 318.761C297.702 320.141 297.334 321.464 296.679 322.439C296.025 323.414 295.137 323.962 294.211 323.962Z" fill="#CCCCCC"/>
<path d="M243.725 301.671H140.16C139.703 301.672 139.249 301.538 138.827 301.277C138.404 301.016 138.019 300.633 137.696 300.15C137.372 299.667 137.115 299.094 136.94 298.462C136.765 297.831 136.675 297.154 136.675 296.47C136.675 295.787 136.765 295.11 136.94 294.478C137.115 293.847 137.372 293.273 137.696 292.79C138.019 292.307 138.404 291.924 138.827 291.663C139.249 291.402 139.703 291.268 140.16 291.269H243.725C244.182 291.268 244.636 291.402 245.058 291.663C245.481 291.924 245.865 292.307 246.189 292.79C246.513 293.273 246.77 293.847 246.945 294.478C247.12 295.11 247.21 295.787 247.21 296.47C247.21 297.154 247.12 297.831 246.945 298.462C246.77 299.094 246.513 299.667 246.189 300.15C245.865 300.633 245.481 301.016 245.058 301.277C244.636 301.538 244.182 301.672 243.725 301.671Z" fill="#CCCCCC"/>
<path d="M244.48 150.093C248.249 150.093 251.303 145.768 251.303 140.433C251.303 135.098 248.249 130.774 244.48 130.774C240.712 130.774 237.657 135.098 237.657 140.433C237.657 145.768 240.712 150.093 244.48 150.093Z" fill="#232F43"/>
<path d="M395.861 193.932H241.163C240.233 193.932 239.341 193.384 238.684 192.408C238.026 191.433 237.657 190.11 237.657 188.73C237.657 187.351 238.026 186.028 238.684 185.053C239.341 184.077 240.233 183.529 241.163 183.529H395.861C396.79 183.529 397.682 184.077 398.34 185.053C398.997 186.028 399.367 187.351 399.367 188.73C399.367 190.11 398.997 191.433 398.34 192.408C397.682 193.384 396.79 193.932 395.861 193.932Z" fill="#232F43"/>
<path d="M345.368 172.384H241.164C240.704 172.385 240.248 172.251 239.822 171.99C239.397 171.729 239.01 171.346 238.684 170.862C238.359 170.379 238.1 169.806 237.924 169.174C237.748 168.543 237.657 167.866 237.657 167.182C237.657 166.499 237.748 165.822 237.924 165.191C238.1 164.559 238.359 163.985 238.684 163.502C239.01 163.019 239.397 162.636 239.822 162.375C240.248 162.114 240.704 161.98 241.164 161.981H345.368C345.828 161.98 346.284 162.114 346.71 162.375C347.135 162.636 347.522 163.019 347.848 163.502C348.173 163.985 348.432 164.559 348.608 165.191C348.784 165.822 348.875 166.499 348.875 167.182C348.875 167.866 348.784 168.543 348.608 169.174C348.432 169.806 348.173 170.379 347.848 170.862C347.522 171.346 347.135 171.729 346.71 171.99C346.284 172.251 345.828 172.385 345.368 172.384Z" fill="#232F43"/>
<path d="M392.001 267.954C392.185 266.873 392.56 265.854 393.101 264.97C393.641 264.085 394.333 263.357 395.128 262.835C395.924 262.314 396.802 262.012 397.703 261.952C398.603 261.892 399.504 262.074 400.341 262.486L414.733 242.229L417.79 255.672L403.654 272.847C402.996 274.523 401.859 275.845 400.458 276.563C399.057 277.281 397.49 277.344 396.053 276.741C394.617 276.138 393.411 274.91 392.664 273.291C391.917 271.671 391.681 269.773 392.001 267.954Z" fill="#FFB8B8"/>
<path d="M470.527 173.767C479.782 173.767 487.285 165.596 487.285 155.517C487.285 145.438 479.782 137.268 470.527 137.268C461.271 137.268 453.768 145.438 453.768 155.517C453.768 165.596 461.271 173.767 470.527 173.767Z" fill="#FFB8B8"/>
<path d="M450.838 406.716L442.474 406.716L438.494 371.579L450.84 371.58L450.838 406.716Z" fill="#FFB8B8"/>
<path d="M452.972 415.547L426 415.545V415.174C425.999 413.673 426.271 412.186 426.799 410.799C427.326 409.412 428.1 408.151 429.074 407.09C430.049 406.028 431.207 405.186 432.48 404.612C433.754 404.037 435.119 403.741 436.498 403.741L452.972 403.742L452.972 415.547Z" fill="#2F2E41"/>
<path d="M476.084 416.376L467.72 416.375L466.561 382.078L476.086 381.239L476.084 416.376Z" fill="#FFB8B8"/>
<path d="M478.218 425.206L451.245 425.205V424.833C451.245 423.332 451.517 421.845 452.044 420.458C452.572 419.071 453.345 417.811 454.32 416.749C455.295 415.688 456.452 414.846 457.726 414.271C459 413.697 460.365 413.401 461.744 413.401L478.218 413.402L478.218 425.206Z" fill="#2F2E41"/>
<path d="M473.705 409.964L467.191 409.128C466.452 409.032 465.771 408.647 465.272 408.046C464.774 407.444 464.492 406.666 464.48 405.856L463.259 313.468C463.256 313.207 463.168 312.955 463.011 312.757C462.854 312.559 462.639 312.427 462.402 312.385C462.165 312.342 461.922 312.392 461.715 312.525C461.508 312.658 461.351 312.866 461.271 313.112L452.233 340.901L452.88 392.989C452.891 393.849 452.597 394.68 452.059 395.31C451.522 395.94 450.782 396.321 449.994 396.372L441.49 396.765C440.712 396.813 439.946 396.54 439.346 395.999C438.746 395.458 438.355 394.69 438.253 393.849L433.811 334.926L433.808 334.889L440.548 273.351L491.164 277.339L477.113 407.035C477.024 407.848 476.665 408.596 476.104 409.14C475.542 409.684 474.817 409.985 474.066 409.987C473.945 409.987 473.825 409.979 473.705 409.964Z" fill="white"/>
<path d="M440.763 278.807C440.309 278.543 439.923 278.158 439.642 277.687C439.361 277.217 439.194 276.678 439.156 276.118C439.156 276.118 443.708 245.294 445.376 244.716L441.726 211.752C441.289 207.732 441.594 203.657 442.623 199.766C443.652 195.876 445.384 192.248 447.718 189.097C449.965 186.04 452.758 183.51 455.928 181.66C459.098 179.811 462.579 178.68 466.162 178.336C466.672 178.286 467.179 178.248 467.684 178.221C472.002 177.97 476.313 178.857 480.249 180.808C484.185 182.759 487.63 185.716 490.292 189.428C493.053 193.171 494.942 197.586 495.8 202.296C496.657 207.006 496.458 211.871 495.218 216.479L493.171 224.236V278.445C493.169 278.974 493.053 279.495 492.832 279.966C492.611 280.438 492.292 280.846 491.9 281.159C485.527 286.253 478.324 288.054 471.325 288.054C458.08 288.054 445.562 281.605 440.763 278.807Z" fill="#232F43"/>
<path d="M408.83 269.046L401.127 261.839C400.825 261.556 400.573 261.197 400.39 260.785C400.206 260.372 400.093 259.916 400.06 259.446C400.026 258.976 400.072 258.502 400.194 258.056C400.317 257.609 400.513 257.2 400.77 256.855L446.658 195.245C448.131 193.285 450.117 192.05 452.255 191.766C454.393 191.481 456.542 192.166 458.312 193.695C459.39 194.635 460.289 195.862 460.946 197.287C461.602 198.712 461.999 200.3 462.109 201.939C462.218 203.578 462.038 205.227 461.581 206.768C461.123 208.31 460.399 209.706 459.461 210.858L412.32 268.753C411.906 269.267 411.369 269.597 410.791 269.692C410.212 269.788 409.625 269.644 409.119 269.283C409.018 269.211 408.922 269.132 408.83 269.046Z" fill="#232F43"/>
<path d="M468.847 260.773C469.232 259.764 469.815 258.859 470.556 258.123C471.296 257.386 472.176 256.835 473.134 256.509C474.091 256.182 475.102 256.088 476.096 256.234C477.091 256.379 478.043 256.76 478.888 257.35L498.052 240.933L499.109 254.683L480.748 268.164C479.745 269.643 478.278 270.67 476.625 271.05C474.973 271.43 473.25 271.136 471.783 270.225C470.316 269.314 469.207 267.849 468.666 266.106C468.125 264.364 468.189 262.467 468.847 260.773Z" fill="#FFB8B8"/>
<path d="M486.001 267.181C485.493 267.01 485.036 266.697 484.674 266.273C484.312 265.85 484.059 265.331 483.938 264.767L482.002 255.913C481.86 255.285 481.891 254.625 482.091 254.015C482.292 253.406 482.652 252.874 483.128 252.486L496.153 237.147L476.994 204.976C475.544 203.032 474.727 200.619 474.67 198.115C474.613 195.611 475.319 193.157 476.679 191.137C477.763 189.527 479.219 188.258 480.898 187.458C482.577 186.658 484.421 186.355 486.242 186.581C488.064 186.807 489.798 187.553 491.269 188.744C492.74 189.935 493.897 191.528 494.62 193.361L512.432 231.115C514.202 234.866 514.644 239.196 513.673 243.278C512.701 247.361 510.384 250.912 507.164 253.254L488.962 266.495C488.404 267.038 487.683 267.339 486.935 267.34C486.618 267.339 486.303 267.286 486.001 267.181Z" fill="#232F43"/>
<path d="M482.945 171.832C482.55 172.09 482.106 172.246 481.647 172.287C481.188 172.328 480.726 172.254 480.298 172.07C479.869 171.885 479.486 171.596 479.176 171.224C478.867 170.853 478.641 170.409 478.514 169.926L478.504 169.881C478.162 168.362 478.432 166.773 478.52 165.213C478.608 163.653 478.46 161.94 477.478 160.799C475.649 158.672 472.42 159.824 469.788 159.298C468.246 158.933 466.879 157.968 465.943 156.585C465.007 155.201 464.566 153.493 464.703 151.781C464.738 151.457 464.796 151.132 464.86 150.807C465.02 149.984 465.003 149.132 464.811 148.318C464.618 147.503 464.254 146.748 463.748 146.113C463.242 145.477 462.608 144.978 461.895 144.654C461.182 144.33 460.41 144.19 459.64 144.246C456.983 144.427 454.119 145.321 451.91 143.19C451.1 142.349 450.535 141.267 450.286 140.079C450.036 138.891 450.114 137.649 450.509 136.509C451.745 132.556 455.283 130.469 458.789 129.313C463.125 127.921 467.691 127.599 472.155 128.37C476.62 129.141 480.87 130.986 484.598 133.77C486.824 135.46 488.906 137.587 489.865 140.351C490.824 143.115 490.385 146.612 488.262 148.453C489.924 150.348 491.099 152.686 491.67 155.232C492.24 157.777 492.187 160.442 491.514 162.957C490.479 166.658 485.472 170.229 482.945 171.832Z" fill="#2F2E41"/>
<path d="M588.186 425.015C588.185 425.212 588.113 425.4 587.985 425.54C587.858 425.679 587.684 425.757 587.503 425.758H327.54C327.359 425.758 327.186 425.68 327.058 425.54C326.93 425.401 326.858 425.212 326.858 425.015C326.858 424.818 326.93 424.629 327.058 424.49C327.186 424.35 327.359 424.272 327.54 424.272H587.503C587.684 424.272 587.858 424.351 587.985 424.49C588.113 424.629 588.185 424.818 588.186 425.015Z" fill="#3F3D56"/>
<path d="M414.49 424.272L396.638 375.846C396.638 375.846 416.274 393.497 416.274 407.979L412.75 374.489C412.75 374.489 422.82 386.708 421.813 405.264C420.806 423.819 414.49 424.272 414.49 424.272Z" fill="#E6E6E6"/>
<path d="M406.056 424.317L379.834 394.846C379.834 394.846 402.023 401.69 404.729 412.089L395.082 389.088C395.082 389.088 407.053 394.873 409.55 408.495C412.047 422.117 406.056 424.317 406.056 424.317Z" fill="#E6E6E6"/>
<path d="M822.14 193.727H561.759V16.3467H822.14V193.727Z" fill="white"/>
<path d="M822.14 193.727H561.759V16.3467H822.14V193.727ZM562.948 192.433H820.951V17.6415H562.948V192.433Z" fill="#3F3D56"/>
<path d="M785.978 156.63H597.919C597.763 156.63 597.613 156.563 597.503 156.443C597.392 156.322 597.33 156.159 597.33 155.989V57.8319C597.33 57.662 597.392 57.4989 597.503 57.3787C597.613 57.2586 597.763 57.191 597.919 57.191C598.075 57.191 598.225 57.2586 598.335 57.3787C598.445 57.4989 598.507 57.662 598.507 57.8319V155.349H785.978C786.056 155.348 786.132 155.365 786.204 155.397C786.276 155.429 786.341 155.476 786.396 155.535C786.451 155.595 786.494 155.666 786.524 155.744C786.553 155.822 786.569 155.905 786.569 155.989C786.569 156.074 786.553 156.157 786.524 156.235C786.494 156.313 786.451 156.384 786.396 156.443C786.341 156.503 786.276 156.55 786.204 156.582C786.132 156.614 786.056 156.631 785.978 156.63Z" fill="#3F3D56"/>
<path d="M638.1 149.58H620.995C620.532 149.58 620.088 149.379 619.76 149.023C619.433 148.666 619.249 148.182 619.248 147.678V122.001C619.249 121.496 619.433 121.013 619.76 120.656C620.088 120.3 620.532 120.099 620.995 120.098H638.1C638.563 120.099 639.007 120.3 639.335 120.656C639.662 121.013 639.846 121.496 639.847 122.001V147.678C639.846 148.182 639.662 148.666 639.335 149.023C639.007 149.379 638.563 149.58 638.1 149.58Z" fill="#216CE3"/>
<path d="M669.291 149.58H652.187C651.723 149.58 651.279 149.379 650.952 149.023C650.624 148.666 650.44 148.182 650.439 147.678V97.6463C650.44 97.1419 650.624 96.6584 650.952 96.3017C651.279 95.9451 651.723 95.7445 652.187 95.7439H669.291C669.754 95.7445 670.198 95.9451 670.526 96.3017C670.854 96.6584 671.038 97.1419 671.038 97.6463V147.678C671.038 148.182 670.854 148.666 670.526 149.023C670.198 149.379 669.754 149.58 669.291 149.58Z" fill="#216CE3"/>
<path d="M700.485 149.58H683.38C682.917 149.58 682.473 149.379 682.145 149.023C681.818 148.666 681.633 148.182 681.633 147.678V122.001C681.633 121.496 681.818 121.013 682.145 120.656C682.473 120.3 682.917 120.099 683.38 120.098H700.485C700.948 120.099 701.392 120.3 701.719 120.656C702.047 121.013 702.231 121.496 702.232 122.001V147.678C702.231 148.182 702.047 148.666 701.719 149.023C701.392 149.379 700.948 149.58 700.485 149.58Z" fill="#216CE3"/>
<path d="M731.678 149.58H714.573C714.12 149.591 713.682 149.406 713.355 149.065C713.027 148.725 712.837 148.257 712.826 147.764V87.9464C712.837 87.4536 713.027 86.9857 713.355 86.6452C713.682 86.3048 714.12 86.1196 714.573 86.1302H731.678C732.13 86.1196 732.568 86.3048 732.896 86.6452C733.223 86.9857 733.414 87.4536 733.425 87.9464V147.764C733.414 148.257 733.223 148.725 732.896 149.065C732.568 149.406 732.13 149.591 731.678 149.58Z" fill="#216CE3"/>
<path d="M762.87 149.58H745.765C745.302 149.58 744.858 149.379 744.531 149.023C744.203 148.666 744.019 148.182 744.018 147.678V70.728C744.019 70.2237 744.203 69.7401 744.531 69.3835C744.858 69.0268 745.302 68.8262 745.765 68.8257H762.87C763.333 68.8262 763.777 69.0268 764.105 69.3835C764.432 69.7401 764.617 70.2237 764.617 70.728V147.678C764.617 148.182 764.432 148.666 764.105 149.023C763.777 149.379 763.333 149.58 762.87 149.58Z" fill="#216CE3"/>
<path d="M629.548 112.408C631.498 112.408 633.079 110.686 633.079 108.562C633.079 106.438 631.498 104.717 629.548 104.717C627.597 104.717 626.016 106.438 626.016 108.562C626.016 110.686 627.597 112.408 629.548 112.408Z" fill="#3F3D56"/>
<path d="M660.74 87.412C662.69 87.412 664.271 85.6904 664.271 83.5666C664.271 81.4428 662.69 79.7211 660.74 79.7211C658.789 79.7211 657.208 81.4428 657.208 83.5666C657.208 85.6904 658.789 87.412 660.74 87.412Z" fill="#3F3D56"/>
<path d="M691.932 112.408C693.882 112.408 695.463 110.686 695.463 108.562C695.463 106.438 693.882 104.717 691.932 104.717C689.982 104.717 688.401 106.438 688.401 108.562C688.401 110.686 689.982 112.408 691.932 112.408Z" fill="#3F3D56"/>
<path d="M723.125 75.2347C725.075 75.2347 726.656 73.513 726.656 71.3893C726.656 69.2655 725.075 67.5438 723.125 67.5438C721.174 67.5438 719.593 69.2655 719.593 71.3893C719.593 73.513 721.174 75.2347 723.125 75.2347Z" fill="#3F3D56"/>
<path d="M754.318 61.1347C756.268 61.1347 757.849 59.413 757.849 57.2892C757.849 55.1654 756.268 53.4437 754.318 53.4437C752.368 53.4437 750.787 55.1654 750.787 57.2892C750.787 59.413 752.368 61.1347 754.318 61.1347Z" fill="#3F3D56"/>
<path d="M692.007 109.424L660.74 83.9204L629.9 109.075L629.195 108.049L660.74 82.3184L691.858 107.7L722.781 70.8497L722.906 70.7947L754.098 57.1081L754.538 58.2977L723.469 71.9293L692.007 109.424Z" fill="#232F43"/>
</svg>
