<svg width="741" height="576" viewBox="0 0 741 576" fill="none" xmlns="http://www.w3.org/2000/svg">
<path opacity="0.1" d="M376.378 177.315C384.121 177.315 390.399 170.599 390.399 162.315C390.399 154.032 384.121 147.316 376.378 147.316C368.634 147.316 362.356 154.032 362.356 162.315C362.356 170.599 368.634 177.315 376.378 177.315Z" fill="black"/>
<g clip-path="url(#clip0_1_2231)">
<path d="M497.187 227.338H199.184C199.175 226.851 198.97 226.387 198.613 226.046C198.256 225.704 197.774 225.513 197.273 225.513H185.536C185.035 225.513 184.554 225.704 184.196 226.046C183.839 226.387 183.634 226.851 183.626 227.338H180.751C180.743 226.851 180.538 226.387 180.181 226.046C179.823 225.704 179.342 225.513 178.841 225.513H167.104C166.602 225.513 166.121 225.704 165.764 226.046C165.406 226.387 165.201 226.851 165.193 227.338H154.735C148.666 227.345 142.847 229.689 138.556 233.856C134.264 238.022 131.85 243.672 131.843 249.565V249.784C131.807 249.782 131.773 249.774 131.736 249.774H131.468C131.216 249.774 130.967 249.822 130.735 249.915C130.503 250.008 130.292 250.145 130.114 250.318C129.937 250.49 129.796 250.695 129.699 250.921C129.603 251.146 129.554 251.388 129.554 251.632V273.369C129.554 273.613 129.603 273.855 129.699 274.08C129.796 274.306 129.937 274.511 130.114 274.683C130.292 274.856 130.503 274.993 130.735 275.086C130.967 275.179 131.216 275.228 131.468 275.228H131.736C131.773 275.228 131.807 275.219 131.843 275.217V479.068C131.85 484.96 134.264 490.61 138.556 494.777C142.847 498.944 148.666 501.288 154.735 501.295H497.187C503.256 501.288 509.075 498.944 513.366 494.777C517.658 490.61 520.072 484.96 520.079 479.068V249.565C520.072 243.672 517.658 238.023 513.366 233.856C509.075 229.689 503.256 227.345 497.187 227.338ZM513.189 479.068C513.184 483.187 511.496 487.136 508.496 490.049C505.497 492.961 501.429 494.6 497.187 494.604H154.735C150.493 494.6 146.425 492.961 143.425 490.049C140.425 487.136 138.738 483.187 138.733 479.068V249.565C138.738 245.446 140.425 241.497 143.425 238.584C146.425 235.671 150.493 234.033 154.735 234.028H497.187C501.429 234.033 505.497 235.671 508.496 238.584C511.496 241.497 513.184 245.446 513.189 249.565V479.068Z" fill="#CCCCCC"/>
<path d="M497.187 498.321H154.735C149.478 498.315 144.437 496.285 140.72 492.676C137.003 489.066 134.911 484.172 134.906 479.067V249.565C134.911 244.461 137.003 239.567 140.72 235.957C144.437 232.348 149.478 230.317 154.735 230.311H497.187C502.444 230.317 507.484 232.348 511.202 235.957C514.919 239.567 517.01 244.461 517.016 249.565V479.067C517.01 484.172 514.919 489.066 511.202 492.676C507.484 496.285 502.444 498.315 497.187 498.321Z" fill="#E6E6E6"/>
<path d="M497.292 482.81H154.63C153.473 482.809 152.364 482.362 151.545 481.568C150.727 480.773 150.267 479.696 150.266 478.572V250.06C150.267 248.936 150.727 247.859 151.545 247.065C152.364 246.27 153.473 245.824 154.63 245.822H497.292C498.449 245.824 499.558 246.27 500.376 247.065C501.195 247.859 501.655 248.936 501.656 250.06V478.572C501.655 479.696 501.195 480.773 500.376 481.568C499.558 482.362 498.449 482.809 497.292 482.81Z" fill="white"/>
<path d="M142.661 365.509C143.566 365.509 144.3 364.797 144.3 363.919C144.3 363.04 143.566 362.328 142.661 362.328C141.756 362.328 141.023 363.04 141.023 363.919C141.023 364.797 141.756 365.509 142.661 365.509Z" fill="white"/>
<path d="M279.091 276.06H206.297C200.587 276.066 195.112 278.271 191.074 282.192C187.036 286.112 184.765 291.428 184.759 296.973V303.361C184.609 303.321 184.452 303.316 184.3 303.345C184.148 303.374 184.005 303.437 183.883 303.529C183.76 303.621 183.661 303.739 183.593 303.874C183.526 304.01 183.492 304.159 183.494 304.309V309.222C183.492 309.373 183.526 309.521 183.593 309.657C183.661 309.792 183.76 309.911 183.883 310.002C184.005 310.094 184.148 310.157 184.3 310.186C184.452 310.216 184.609 310.21 184.759 310.17V317.609C184.609 317.569 184.452 317.563 184.3 317.592C184.148 317.621 184.005 317.684 183.883 317.776C183.76 317.868 183.661 317.987 183.593 318.122C183.526 318.257 183.492 318.406 183.494 318.557V330.839C183.492 330.99 183.526 331.138 183.593 331.274C183.661 331.409 183.76 331.528 183.883 331.62C184.005 331.711 184.148 331.774 184.3 331.803C184.452 331.833 184.609 331.827 184.759 331.787V336.278C184.609 336.238 184.452 336.232 184.3 336.262C184.148 336.291 184.005 336.354 183.883 336.445C183.76 336.537 183.661 336.656 183.593 336.791C183.526 336.927 183.492 337.075 183.494 337.226V349.508C183.492 349.659 183.526 349.808 183.593 349.943C183.661 350.078 183.76 350.197 183.883 350.289C184.005 350.381 184.148 350.444 184.3 350.473C184.452 350.502 184.609 350.496 184.759 350.456V480.16C184.765 485.704 187.036 491.02 191.074 494.941C195.112 498.861 200.587 501.067 206.297 501.073H279.091C284.801 501.067 290.276 498.861 294.313 494.941C298.351 491.02 300.622 485.704 300.629 480.16V296.973C300.622 291.428 298.351 286.112 294.313 282.192C290.276 278.271 284.801 276.066 279.091 276.06ZM296.075 480.16C296.07 484.532 294.279 488.724 291.095 491.816C287.911 494.907 283.594 496.646 279.091 496.651H206.297C201.794 496.646 197.477 494.907 194.293 491.816C191.109 488.724 189.318 484.532 189.313 480.16V296.973C189.318 292.6 191.109 288.409 194.293 285.317C197.477 282.225 201.794 280.486 206.297 280.481H279.091C283.594 280.486 287.911 282.225 291.095 285.317C294.279 288.409 296.07 292.6 296.075 296.973V480.16Z" fill="#CCCCCC"/>
<path d="M279.091 499.108H206.297C201.123 499.102 196.163 497.104 192.505 493.552C188.846 490 186.789 485.183 186.783 480.16V296.973C186.789 291.949 188.846 287.133 192.505 283.581C196.163 280.029 201.123 278.031 206.297 278.025H279.091C284.265 278.031 289.225 280.029 292.883 283.581C296.541 287.133 298.599 291.949 298.605 296.973V480.16C298.599 485.183 296.541 490 292.883 493.552C289.225 497.104 284.265 499.102 279.091 499.108Z" fill="#E6E6E6"/>
<path d="M280.89 496.16H204.498C201.009 496.156 197.663 494.808 195.196 492.413C192.729 490.017 191.341 486.769 191.337 483.38V293.752C191.341 290.364 192.729 287.116 195.196 284.72C197.663 282.324 201.009 280.976 204.498 280.973H214.461C215.037 280.973 215.59 281.196 215.998 281.592C216.406 281.988 216.635 282.525 216.636 283.085C216.638 284.739 217.315 286.325 218.52 287.495C219.725 288.665 221.358 289.323 223.062 289.325H261.314C263.018 289.323 264.651 288.665 265.856 287.495C267.061 286.325 267.738 284.739 267.74 283.085C267.741 282.525 267.97 281.988 268.378 281.592C268.786 281.196 269.339 280.973 269.915 280.973H280.89C284.379 280.976 287.725 282.324 290.192 284.72C292.659 287.116 294.047 290.364 294.051 293.752V483.38C294.047 486.769 292.659 490.017 290.192 492.413C287.725 494.808 284.379 496.156 280.89 496.16Z" fill="white"/>
<path d="M245.983 285.271H236.875C236.607 285.271 236.349 285.168 236.159 284.984C235.97 284.799 235.863 284.549 235.863 284.289C235.863 284.028 235.97 283.778 236.159 283.594C236.349 283.41 236.607 283.306 236.875 283.306H245.983C246.251 283.307 246.508 283.411 246.697 283.595C246.886 283.779 246.992 284.029 246.992 284.289C246.992 284.549 246.886 284.799 246.697 284.983C246.508 285.167 246.251 285.271 245.983 285.271Z" fill="white"/>
<path d="M252.307 285.026C252.587 285.026 252.813 284.806 252.813 284.534C252.813 284.263 252.587 284.043 252.307 284.043C252.028 284.043 251.802 284.263 251.802 284.534C251.802 284.806 252.028 285.026 252.307 285.026Z" fill="white"/>
<path d="M198.58 331.92C199.437 331.92 200.132 331.245 200.132 330.413C200.132 329.581 199.437 328.907 198.58 328.907C197.723 328.907 197.029 329.581 197.029 330.413C197.029 331.245 197.723 331.92 198.58 331.92Z" fill="#CCCCCC"/>
<path d="M195.273 392.352C196.966 392.352 198.338 391.019 198.338 389.376C198.338 387.732 196.966 386.4 195.273 386.4C193.58 386.4 192.208 387.732 192.208 389.376C192.208 391.019 193.58 392.352 195.273 392.352Z" fill="#CCCCCC"/>
<path d="M252.992 313.59C254.218 313.59 255.212 312.625 255.212 311.435C255.212 310.244 254.218 309.279 252.992 309.279C251.766 309.279 250.772 310.244 250.772 311.435C250.772 312.625 251.766 313.59 252.992 313.59Z" fill="#CCCCCC"/>
<path d="M202.488 433.128C203.466 433.128 204.259 432.358 204.259 431.408C204.259 430.459 203.466 429.689 202.488 429.689C201.51 429.689 200.717 430.459 200.717 431.408C200.717 432.358 201.51 433.128 202.488 433.128Z" fill="#CCCCCC"/>
<path d="M238.262 457.206C239.321 457.206 240.18 456.372 240.18 455.344C240.18 454.315 239.321 453.481 238.262 453.481C237.203 453.481 236.344 454.315 236.344 455.344C236.344 456.372 237.203 457.206 238.262 457.206Z" fill="#CCCCCC"/>
</g>
<g clip-path="url(#clip1_1_2231)">
<path d="M508.981 459.388C509.415 459.262 509.819 459.026 510.166 458.696C510.514 458.366 510.795 457.95 510.992 457.477C511.188 457.005 511.294 456.488 511.303 455.961C511.311 455.435 511.222 454.914 511.041 454.433L518.96 445.696L513.481 444.143L506.801 452.678C506.136 453.09 505.622 453.776 505.358 454.605C505.093 455.433 505.095 456.348 505.364 457.175C505.633 458.003 506.149 458.685 506.816 459.093C507.483 459.5 508.253 459.606 508.981 459.388Z" fill="#FFB6B6"/>
<path d="M513.073 452.351L509.379 446.209L523.252 429.285L526.474 402.608C526.633 401.289 527.036 400.028 527.655 398.914C528.274 397.8 529.093 396.86 530.055 396.162C531.016 395.463 532.097 395.023 533.219 394.872C534.34 394.721 535.477 394.863 536.547 395.289C538.479 396.059 540.073 397.703 540.979 399.858C541.885 402.014 542.029 404.505 541.38 406.785L533.161 435.546L513.073 452.351Z" fill="#E4E4E4"/>
<path d="M539.121 566.019H535.021L533.07 547.365L539.122 547.366L539.121 566.019Z" fill="#FFB6B6"/>
<path d="M541.327 575.201H538.418L537.898 571.961L536.568 575.201H528.852C528.482 575.201 528.122 575.062 527.824 574.803C527.526 574.545 527.306 574.181 527.196 573.764C527.086 573.348 527.091 572.9 527.212 572.488C527.333 572.076 527.562 571.719 527.866 571.472L534.028 566.452V563.177L540.51 563.633L541.327 575.201Z" fill="#2F2E41"/>
<path d="M564.417 561.098L560.815 563.409L551.543 548.124L556.858 544.713L564.417 561.098Z" fill="#FFB6B6"/>
<path d="M570.075 567.92L567.52 569.56L565.751 567.007L565.895 570.602L559.117 574.952C558.793 575.161 558.42 575.242 558.053 575.183C557.687 575.123 557.346 574.928 557.08 574.624C556.815 574.32 556.639 573.924 556.578 573.494C556.516 573.064 556.573 572.622 556.74 572.232L560.119 564.349L558.792 561.472L564.67 558.219L570.075 567.92Z" fill="#2F2E41"/>
<path d="M540.849 559.376H532.375V523.788L527.13 500.586C523.365 483.994 522.364 466.697 524.183 449.655L524.191 449.586L524.236 449.54C524.371 449.407 537.797 436.313 546.29 446.33C552.014 453.081 546.635 477.359 546.334 478.691V520.543L540.849 559.376Z" fill="#232F43"/>
<path d="M540.828 391.572L540.783 391.519L529.979 391.713L524.211 407.681C518.871 417.463 523.977 423.027 524.335 423.908L523.314 435.911L522.657 443.654L521.601 456.121L546.362 446.58L543.607 433.567L546.79 414.796C547.497 410.645 547.322 406.352 546.282 402.3C545.242 398.248 543.368 394.563 540.828 391.572Z" fill="#E4E4E4"/>
<path d="M535.793 523.972L553.201 552.85L559.878 547.251L545.34 512.014L535.793 523.972Z" fill="#232F43"/>
<path d="M534.372 388.468C539.88 388.468 544.346 383.201 544.346 376.704C544.346 370.206 539.88 364.939 534.372 364.939C528.863 364.939 524.397 370.206 524.397 376.704C524.397 383.201 528.863 388.468 534.372 388.468Z" fill="#FFB6B6"/>
<path opacity="0.1" d="M543.991 422.216L533.112 437.021L522.657 443.654L523.314 435.911L529.471 431.834L543.991 422.216Z" fill="black"/>
<path d="M527.385 398.751L526.45 393.914C526.142 392.295 526.112 390.62 526.362 388.988C526.612 387.355 527.136 385.798 527.904 384.408C528.61 383.098 529.003 381.588 529.042 380.036C529.082 378.485 528.767 376.949 528.129 375.591C527.659 374.493 526.944 373.567 526.062 372.912C525.18 372.256 524.163 371.896 523.12 371.87H522.871V371.576C522.871 367.358 525.658 364.38 528.25 364.209C528.344 363.332 528.871 362.545 529.79 361.92C531.984 360.428 536.226 360.104 539.431 362.093C539.491 361.45 539.696 360.838 540.027 360.322C540.357 359.805 540.799 359.404 541.307 359.16C541.834 358.944 542.401 358.906 542.945 359.049C542.992 357.992 543.362 356.99 543.988 356.23C544.873 355.218 546.292 354.834 547.883 355.173C550.068 355.641 552.221 357.282 553.946 359.796C555.476 362.024 556.538 364.65 557.565 367.19C558.575 369.688 559.619 372.27 561.133 374.457C562.791 376.853 564.846 378.405 566.918 378.828C569.336 379.321 571.817 378.148 572.952 375.974L573.177 375.543L573.383 375.988C574.658 378.752 574.137 382.551 572.142 385.02C570.353 387.234 567.546 388.362 564.636 388.034C562.171 387.758 559.686 386.523 557.248 384.364C554.827 382.219 553.329 379.848 552.797 377.317C552.648 376.534 552.541 375.741 552.477 374.942C552.312 373.268 552.157 371.687 551.284 370.523C550.499 369.477 549.285 369.024 548.209 368.681L547.997 368.615C547.959 369.086 547.834 369.542 547.63 369.95C547.427 370.359 547.151 370.71 546.821 370.979C546.622 371.12 546.405 371.219 546.178 371.271C547.426 377.197 546.913 381.733 544.651 384.758C540.833 389.864 533.497 388.813 533.187 388.767L532.98 388.735L532.97 388.49C532.942 387.832 532.874 387.177 532.766 386.53C531.715 389.516 528.18 397.412 527.707 398.208L527.385 398.751Z" fill="#2F2E41"/>
<path d="M175.146 417.746C174.855 418.199 174.482 418.57 174.056 418.835C173.629 419.099 173.159 419.25 172.677 419.277C172.196 419.304 171.715 419.206 171.27 418.99C170.824 418.774 170.424 418.445 170.097 418.027L159.355 423.538L160.402 416.465L170.442 412.316C171.074 411.716 171.871 411.41 172.681 411.456C173.491 411.502 174.259 411.898 174.839 412.567C175.419 413.236 175.77 414.133 175.827 415.088C175.884 416.042 175.641 416.988 175.146 417.746Z" fill="#A0616A"/>
<path d="M167.978 419.955L143.027 433.063L142.974 433.041L114.537 421.088C112.419 419.783 110.804 417.571 110.023 414.907C109.242 412.243 109.354 409.327 110.336 406.757C110.881 405.338 111.674 404.07 112.664 403.037C113.653 402.005 114.817 401.232 116.079 400.768C117.34 400.305 118.671 400.162 119.982 400.349C121.294 400.535 122.557 401.047 123.689 401.852L144.851 416.887L165.372 413.751L167.978 419.955Z" fill="#3F3D56"/>
<path d="M206.665 340.861C209.719 334.014 210.472 326.061 208.774 318.587C208.606 317.847 209.589 317.577 209.757 318.317C211.511 326.097 210.713 334.372 207.522 341.489C207.218 342.168 206.362 341.536 206.665 340.861Z" fill="white"/>
<path d="M235.287 307.703C232.257 306.456 229.702 303.978 228.078 300.714C226.455 297.45 225.867 293.611 226.422 289.883C226.536 289.129 227.535 289.304 227.42 290.058C226.898 293.529 227.446 297.104 228.963 300.14C230.481 303.177 232.868 305.473 235.695 306.615C236.309 306.864 235.897 307.951 235.287 307.703Z" fill="white"/>
<path d="M236.855 340.322C242.788 337.023 247.449 331.207 249.908 324.035C250.152 323.324 251.074 323.807 250.831 324.517C248.26 331.975 243.399 338.015 237.218 341.432C236.629 341.757 236.268 340.645 236.855 340.322Z" fill="white"/>
<path d="M247.806 276.338C248.893 277.109 250.125 277.549 251.392 277.62C252.659 277.69 253.921 277.388 255.064 276.741C255.65 276.407 256.009 277.52 255.428 277.851C254.162 278.559 252.768 278.891 251.368 278.817C249.968 278.742 248.605 278.265 247.398 277.426C247.278 277.359 247.185 277.24 247.137 277.094C247.09 276.948 247.091 276.786 247.14 276.641C247.195 276.498 247.296 276.385 247.42 276.328C247.545 276.271 247.684 276.275 247.806 276.338Z" fill="white"/>
<path d="M393.986 328.856C390.931 330.011 387.626 329.847 384.663 328.394C381.7 326.941 379.272 324.293 377.812 320.923C377.518 320.24 378.404 319.67 378.698 320.354C380.053 323.495 382.316 325.961 385.077 327.308C387.838 328.654 390.917 328.792 393.757 327.697C394.374 327.46 394.6 328.62 393.986 328.856Z" fill="white"/>
<path d="M411.888 353.787C414.942 346.939 415.695 338.986 413.998 331.513C413.829 330.772 414.812 330.503 414.98 331.242C416.734 339.023 415.936 347.297 412.746 354.415C412.441 355.093 411.585 354.461 411.888 353.787Z" fill="white"/>
<path d="M387.972 294.922C389.233 294.766 390.442 294.242 391.489 293.399C392.536 292.556 393.39 291.419 393.972 290.09C394.27 289.408 395.125 290.04 394.83 290.718C394.18 292.182 393.236 293.437 392.081 294.372C390.925 295.307 389.593 295.894 388.201 296.081C388.071 296.112 387.936 296.083 387.824 296.001C387.711 295.918 387.629 295.788 387.595 295.637C387.565 295.483 387.588 295.322 387.659 295.188C387.729 295.054 387.842 294.959 387.972 294.922Z" fill="white"/>
<path d="M466.905 270.779C453.109 285.759 443.281 306.035 439.643 327.766C438.857 332.464 438.406 337.311 438.896 342.088C439.404 346.74 440.96 351.147 443.4 354.851C445.617 358.358 448.229 361.643 449.684 365.724C451.218 370.026 450.904 374.677 449.261 378.868C447.25 383.996 443.796 387.966 440.305 391.71C436.428 395.867 432.346 400.112 430.356 405.987C430.115 406.699 429.193 406.216 429.433 405.506C432.895 395.284 442.051 390.309 446.969 381.311C449.263 377.112 450.499 372.072 449.081 367.195C447.84 362.931 445.149 359.541 442.879 356.012C440.495 352.308 438.76 348.345 438.08 343.727C437.386 339.003 437.677 334.125 438.358 329.424C439.97 318.776 442.991 308.494 447.312 298.954C452.191 288.033 458.618 278.178 466.315 269.814C466.791 269.296 467.379 270.265 466.905 270.779Z" fill="white"/>
<path d="M440.51 320.629C437.48 319.381 434.926 316.904 433.302 313.639C431.678 310.375 431.091 306.536 431.645 302.808C431.759 302.055 432.758 302.229 432.643 302.984C432.122 306.454 432.669 310.03 434.186 313.066C435.704 316.102 438.091 318.398 440.918 319.54C441.532 319.789 441.12 320.876 440.51 320.629Z" fill="white"/>
<path d="M442.078 353.247C448.011 349.948 452.672 344.133 455.132 336.96C455.375 336.25 456.297 336.732 456.054 337.442C453.483 344.9 448.622 350.94 442.441 354.357C441.852 354.682 441.492 353.57 442.078 353.247Z" fill="white"/>
<path d="M453.029 289.263C454.116 290.034 455.348 290.475 456.615 290.545C457.882 290.615 459.144 290.313 460.287 289.666C460.873 289.333 461.233 290.445 460.651 290.777C459.385 291.484 457.991 291.816 456.591 291.742C455.191 291.668 453.828 291.19 452.621 290.352C452.501 290.284 452.408 290.165 452.36 290.019C452.313 289.873 452.314 289.712 452.364 289.567C452.418 289.423 452.519 289.31 452.643 289.254C452.768 289.197 452.907 289.2 453.029 289.263Z" fill="white"/>
<path d="M192.68 503.787V524.235C192.68 525.083 192.821 525.922 193.096 526.706C193.371 527.489 193.774 528.2 194.283 528.8C194.791 529.399 195.394 529.875 196.058 530.199C196.722 530.524 197.434 530.691 198.153 530.691H287.721V571.046H286.531C286.438 571.046 286.345 571.068 286.259 571.11C286.173 571.152 286.094 571.214 286.028 571.291C285.962 571.369 285.91 571.462 285.874 571.563C285.838 571.665 285.82 571.774 285.82 571.884V574.691C285.82 574.801 285.838 574.91 285.874 575.012C285.91 575.114 285.962 575.206 286.028 575.284C286.094 575.362 286.173 575.424 286.259 575.466C286.345 575.508 286.438 575.53 286.531 575.53H342.134C342.227 575.53 342.32 575.508 342.406 575.466C342.492 575.424 342.571 575.362 342.637 575.284C342.703 575.206 342.755 575.114 342.791 575.012C342.826 574.91 342.845 574.801 342.845 574.691V571.884C342.845 571.774 342.826 571.665 342.791 571.563C342.755 571.462 342.703 571.369 342.637 571.291C342.571 571.214 342.492 571.152 342.406 571.11C342.32 571.068 342.227 571.046 342.134 571.046H340.944V530.691H430.512C431.231 530.691 431.943 530.524 432.607 530.199C433.271 529.875 433.874 529.399 434.382 528.8C434.89 528.2 435.294 527.489 435.569 526.706C435.844 525.922 435.985 525.083 435.985 524.235V503.787L192.68 503.787Z" fill="#232F43"/>
<path d="M265.902 432.49H220.985C220.521 432.49 220.076 432.273 219.747 431.885C219.419 431.498 219.235 430.973 219.235 430.426C219.235 429.879 219.419 429.354 219.747 428.966C220.076 428.579 220.521 428.362 220.985 428.362H265.902C268.159 428.325 268.181 432.528 265.902 432.49Z" fill="#E4E4E4"/>
<path d="M265.902 441.95H220.985C220.521 441.95 220.076 441.733 219.747 441.346C219.419 440.959 219.235 440.434 219.235 439.886C219.235 439.339 219.419 438.814 219.747 438.427C220.076 438.04 220.521 437.822 220.985 437.822H265.902C268.159 437.785 268.181 441.988 265.902 441.95Z" fill="#E4E4E4"/>
<path d="M265.902 451.411H220.985C220.521 451.411 220.076 451.193 219.747 450.806C219.419 450.419 219.235 449.894 219.235 449.347C219.235 448.799 219.419 448.274 219.747 447.887C220.076 447.5 220.521 447.283 220.985 447.283H265.902C268.159 447.246 268.181 451.448 265.902 451.411Z" fill="#E4E4E4"/>
<path d="M407.469 432.49H362.552C362.088 432.49 361.643 432.273 361.314 431.885C360.986 431.498 360.802 430.973 360.802 430.426C360.802 429.879 360.986 429.354 361.314 428.966C361.643 428.579 362.088 428.362 362.552 428.362H407.469C409.726 428.325 409.748 432.528 407.469 432.49Z" fill="#E4E4E4"/>
<path d="M407.469 441.95H362.552C362.088 441.95 361.644 441.732 361.316 441.345C360.989 440.958 360.805 440.433 360.805 439.886C360.805 439.34 360.989 438.815 361.316 438.428C361.644 438.041 362.088 437.823 362.552 437.822H407.469C409.726 437.785 409.748 441.988 407.469 441.95Z" fill="#E4E4E4"/>
<path d="M407.469 451.411H362.552C362.088 451.411 361.643 451.193 361.314 450.806C360.986 450.419 360.802 449.894 360.802 449.347C360.802 448.799 360.986 448.274 361.314 447.887C361.643 447.5 362.088 447.283 362.552 447.283H407.469C409.726 447.246 409.748 451.448 407.469 451.411Z" fill="#E4E4E4"/>
<path d="M507.56 390.118L507.712 423.4L508.33 423.359L508.918 435.68L507.77 435.755L507.802 443.157L508.721 443.136L508.907 455.468L507.861 455.491L508.359 564.095C508.37 566.939 507.424 569.672 505.728 571.694C504.033 573.715 501.726 574.861 499.315 574.88L397.601 575.53C395.19 575.543 392.873 574.427 391.158 572.427C389.444 570.427 388.473 567.706 388.458 564.863L387.659 390.885C387.648 388.041 388.594 385.309 390.29 383.287C391.985 381.265 394.292 380.119 396.703 380.101L498.417 379.451C500.828 379.439 503.144 380.555 504.858 382.555C506.572 384.555 507.544 387.274 507.56 390.118Z" fill="#232F43"/>
<path d="M425.703 605.216L323.63 605.869C322.887 605.873 322.173 605.529 321.645 604.912C321.116 604.296 320.817 603.458 320.812 602.581L320.007 427.447C320.004 426.57 320.295 425.728 320.818 425.105C321.341 424.482 322.052 424.128 322.795 424.123L424.867 423.47C425.61 423.466 426.324 423.81 426.853 424.427C427.381 425.043 427.681 425.881 427.685 426.758L428.491 601.892C428.494 602.769 428.202 603.611 427.679 604.234C427.157 604.857 426.446 605.211 425.703 605.216Z" fill="white"/>
<path d="M447.188 383.974C447.615 383.974 447.961 383.565 447.961 383.061C447.961 382.558 447.615 382.149 447.188 382.149C446.76 382.149 446.414 382.558 446.414 383.061C446.414 383.565 446.76 383.974 447.188 383.974Z" fill="white"/>
<path d="M477.547 435.585H418.47C418.059 435.585 417.664 435.392 417.373 435.048C417.082 434.705 416.918 434.239 416.917 433.754V405.481C416.918 404.996 417.082 404.53 417.373 404.187C417.664 403.844 418.059 403.65 418.47 403.65H477.547C477.958 403.65 478.353 403.844 478.644 404.187C478.935 404.53 479.099 404.996 479.099 405.481V433.754C479.099 434.239 478.935 434.705 478.644 435.048C478.353 435.392 477.958 435.585 477.547 435.585Z" fill="white"/>
<path d="M471.922 449.148H424.096C423.601 449.148 423.127 448.916 422.778 448.504C422.428 448.092 422.232 447.533 422.232 446.95C422.232 446.367 422.428 445.808 422.778 445.396C423.127 444.984 423.601 444.752 424.096 444.752H471.922C474.325 444.713 474.349 449.188 471.922 449.148Z" fill="#E4E4E4"/>
<path d="M471.921 459.221H424.095C423.602 459.22 423.129 458.988 422.78 458.576C422.431 458.164 422.235 457.606 422.235 457.023C422.235 456.441 422.431 455.883 422.78 455.471C423.129 455.058 423.602 454.826 424.095 454.826H471.921C474.324 454.786 474.348 459.261 471.921 459.221Z" fill="#E4E4E4"/>
<path d="M471.922 469.294H424.096C423.601 469.294 423.127 469.063 422.778 468.65C422.428 468.238 422.232 467.679 422.232 467.096C422.232 466.513 422.428 465.954 422.778 465.542C423.127 465.13 423.601 464.899 424.096 464.899H471.922C474.325 464.859 474.349 469.334 471.922 469.294Z" fill="#E4E4E4"/>
<path d="M477.547 517.622H418.47C418.059 517.622 417.664 517.429 417.373 517.085C417.082 516.742 416.918 516.276 416.917 515.791V487.518C416.918 487.033 417.082 486.567 417.373 486.224C417.664 485.88 418.059 485.687 418.47 485.687H477.547C477.958 485.687 478.353 485.88 478.644 486.224C478.935 486.567 479.099 487.033 479.099 487.518V515.791C479.099 516.276 478.935 516.742 478.644 517.085C478.353 517.429 477.958 517.622 477.547 517.622Z" fill="white"/>
<path d="M471.922 531.185H424.096C423.601 531.185 423.127 530.953 422.778 530.541C422.428 530.129 422.232 529.57 422.232 528.987C422.232 528.404 422.428 527.845 422.778 527.433C423.127 527.021 423.601 526.789 424.096 526.789H471.922C474.325 526.75 474.349 531.225 471.922 531.185Z" fill="#E4E4E4"/>
<path d="M471.921 541.258H424.095C423.602 541.257 423.129 541.025 422.78 540.613C422.431 540.201 422.235 539.642 422.235 539.06C422.235 538.478 422.431 537.92 422.78 537.507C423.129 537.095 423.602 536.863 424.095 536.862H471.921C474.324 536.823 474.348 541.298 471.921 541.258Z" fill="#E4E4E4"/>
<path d="M471.922 551.331H424.096C423.601 551.331 423.127 551.1 422.778 550.687C422.428 550.275 422.232 549.716 422.232 549.133C422.232 548.55 422.428 547.991 422.778 547.579C423.127 547.167 423.601 546.936 424.096 546.936H471.922C474.325 546.896 474.349 551.371 471.922 551.331Z" fill="#E4E4E4"/>
<path d="M215.063 566.984L214.867 471.07L215.608 471.068L215.572 453.427L214.831 453.429L214.77 423.981C214.768 422.881 214.582 421.792 214.223 420.777C213.864 419.762 213.339 418.84 212.678 418.064C212.017 417.289 211.233 416.674 210.371 416.255C209.509 415.837 208.585 415.623 207.652 415.626L154.809 415.776C153.877 415.779 152.954 415.998 152.093 416.421C151.233 416.845 150.451 417.464 149.793 418.243C149.135 419.023 148.614 419.948 148.259 420.965C147.905 421.982 147.723 423.072 147.725 424.171L147.767 444.705L146.587 444.739L146.847 457.073L147.793 457.045L147.798 459.767L146.792 459.797L147.053 472.13L147.824 472.108L148.018 567.174C148.019 568.275 148.204 569.364 148.562 570.38C148.92 571.396 149.445 572.319 150.106 573.095C150.768 573.872 151.552 574.486 152.416 574.904C153.279 575.322 154.203 575.535 155.136 575.53L207.979 575.379C209.862 575.371 211.665 574.483 212.993 572.909C214.321 571.335 215.066 569.204 215.063 566.984Z" fill="#3F3D56"/>
<path d="M153.52 571.691C152.861 571.412 152.291 570.9 151.888 570.226C151.484 569.551 151.266 568.746 151.264 567.92L150.968 423.408C150.966 422.343 151.322 421.322 151.959 420.567C152.595 419.813 153.46 419.387 154.362 419.385L165.605 419.353L165.466 419.758C165.225 420.461 165.134 421.223 165.201 421.978C165.268 422.732 165.491 423.456 165.851 424.084C166.211 424.713 166.697 425.227 167.265 425.582C167.834 425.937 168.467 426.122 169.111 426.121L194.063 426.049C194.684 425.986 195.284 425.75 195.813 425.362C196.343 424.974 196.788 424.445 197.112 423.817C197.431 423.199 197.622 422.501 197.669 421.78C197.716 421.059 197.618 420.335 197.382 419.667L197.242 419.263L208.855 419.229C209.757 419.228 210.623 419.649 211.263 420.4C211.902 421.15 212.263 422.169 212.266 423.233L212.549 561.11C212.552 563.933 211.605 566.643 209.916 568.644C208.228 570.645 205.935 571.774 203.542 571.784L154.675 571.924C154.281 571.925 153.891 571.847 153.52 571.691Z" fill="white"/>
<path d="M172.771 422.778C173.198 422.778 173.544 422.37 173.544 421.866C173.544 421.362 173.198 420.953 172.771 420.953C172.343 420.953 171.997 421.362 171.997 421.866C171.997 422.37 172.343 422.778 172.771 422.778Z" fill="white"/>
<path d="M202.674 467.191H162.527C162.247 467.191 161.979 467.059 161.781 466.826C161.583 466.593 161.472 466.276 161.472 465.946V446.733C161.472 446.403 161.583 446.087 161.781 445.853C161.979 445.62 162.247 445.489 162.527 445.488H202.674C202.954 445.489 203.222 445.62 203.42 445.853C203.617 446.087 203.729 446.403 203.729 446.733V465.946C203.729 466.276 203.617 466.593 203.42 466.826C203.222 467.059 202.954 467.191 202.674 467.191Z" fill="white"/>
<path d="M198.851 476.408H166.35C166.183 476.408 166.018 476.37 165.864 476.295C165.71 476.22 165.57 476.11 165.453 475.971C165.335 475.833 165.241 475.668 165.177 475.487C165.114 475.305 165.081 475.111 165.081 474.914C165.081 474.718 165.114 474.523 165.177 474.342C165.241 474.161 165.335 473.996 165.453 473.857C165.57 473.718 165.71 473.608 165.864 473.534C166.018 473.459 166.183 473.42 166.35 473.421H198.851C200.484 473.394 200.5 476.435 198.851 476.408Z" fill="#E4E4E4"/>
<path d="M198.851 483.253H166.35C166.014 483.253 165.692 483.096 165.454 482.816C165.217 482.536 165.083 482.156 165.083 481.76C165.083 481.364 165.217 480.984 165.454 480.704C165.692 480.424 166.014 480.266 166.35 480.266H198.851C200.484 480.239 200.5 483.28 198.851 483.253Z" fill="#E4E4E4"/>
<path d="M198.851 490.099H166.35C166.183 490.099 166.018 490.061 165.864 489.986C165.71 489.911 165.57 489.801 165.453 489.662C165.335 489.524 165.241 489.359 165.177 489.177C165.114 488.996 165.081 488.802 165.081 488.605C165.081 488.409 165.114 488.214 165.177 488.033C165.241 487.852 165.335 487.687 165.453 487.548C165.57 487.409 165.71 487.299 165.864 487.224C166.018 487.15 166.183 487.111 166.35 487.112H198.851C200.484 487.085 200.5 490.126 198.851 490.099Z" fill="#E4E4E4"/>
<path d="M202.674 524.767H162.527C162.247 524.767 161.979 524.636 161.781 524.402C161.583 524.169 161.472 523.853 161.472 523.523V504.309C161.472 503.979 161.583 503.663 161.781 503.429C161.979 503.196 162.247 503.065 162.527 503.065H202.674C202.954 503.065 203.222 503.196 203.42 503.429C203.617 503.663 203.729 503.979 203.729 504.309V523.523C203.729 523.853 203.617 524.169 203.42 524.402C203.222 524.636 202.954 524.767 202.674 524.767Z" fill="white"/>
<path d="M198.851 533.984H166.35C166.183 533.984 166.018 533.946 165.864 533.871C165.71 533.796 165.57 533.686 165.453 533.548C165.335 533.409 165.241 533.244 165.177 533.063C165.114 532.881 165.081 532.687 165.081 532.49C165.081 532.294 165.114 532.1 165.177 531.918C165.241 531.737 165.335 531.572 165.453 531.433C165.57 531.295 165.71 531.185 165.864 531.11C166.018 531.035 166.183 530.996 166.35 530.997H198.851C200.484 530.97 200.5 534.011 198.851 533.984Z" fill="#E4E4E4"/>
<path d="M198.851 540.829H166.35C166.014 540.829 165.692 540.672 165.454 540.392C165.217 540.112 165.083 539.732 165.083 539.336C165.083 538.94 165.217 538.56 165.454 538.28C165.692 538 166.014 537.842 166.35 537.842H198.851C200.484 537.815 200.5 540.857 198.851 540.829Z" fill="#E4E4E4"/>
<path d="M198.851 547.675H166.35C166.183 547.675 166.018 547.637 165.864 547.562C165.71 547.487 165.57 547.377 165.453 547.238C165.335 547.1 165.241 546.935 165.177 546.753C165.114 546.572 165.081 546.378 165.081 546.181C165.081 545.985 165.114 545.79 165.177 545.609C165.241 545.428 165.335 545.263 165.453 545.124C165.57 544.985 165.71 544.875 165.864 544.801C166.018 544.726 166.183 544.687 166.35 544.688H198.851C200.484 544.661 200.5 547.702 198.851 547.675Z" fill="#E4E4E4"/>
<path d="M112.929 570.281L117.291 570.28L119.366 550.435H112.928L112.929 570.281Z" fill="#A0616A"/>
<path d="M111.816 568.601L113.044 568.601L117.838 566.302L120.407 568.601C121.859 568.601 123.252 569.281 124.278 570.492C125.305 571.703 125.882 573.345 125.882 575.058V575.268L111.816 575.268L111.816 568.601Z" fill="#2F2E41"/>
<path d="M129.834 567.039L134.089 568.172L139.819 549.353L133.539 547.68L129.834 567.039Z" fill="#A0616A"/>
<path d="M129.062 565.111L130.26 565.43L135.365 564.432L137.442 567.342C138.858 567.72 140.09 568.745 140.865 570.193C141.64 571.641 141.896 573.393 141.577 575.064L141.537 575.268L127.817 571.614L129.062 565.111Z" fill="#2F2E41"/>
<path d="M107.404 448.954C105.359 456.229 105.575 464.127 107.895 472.603L108.888 520.325C108.888 520.325 107.409 551.621 112.179 562.633H119.096L122.52 517.467L122.951 487.152L137.78 512.728L128.335 561.895L136.848 562.793L152.175 509.435L133.264 457.669L107.404 448.954Z" fill="#232F43"/>
<path d="M134.497 459.197L109.346 454.452C108.686 454.203 108.08 453.788 107.569 453.237C107.058 452.685 106.654 452.01 106.386 451.257C106.117 450.504 105.989 449.691 106.012 448.875C106.035 448.058 106.207 447.257 106.517 446.526L107.657 443.835L107.214 415.564C107.161 411.887 107.93 408.257 109.443 405.042C110.956 401.826 113.161 399.137 115.835 397.245L118.288 395.515L119.528 391.803L130.957 392.131L130.991 397.001L135.084 404.699L135.084 404.731L134.827 446.633L133.699 450.958L135.405 455.987L134.497 459.197Z" fill="#3F3D56"/>
<path d="M126.289 387.186C132.025 387.186 136.674 381.702 136.674 374.937C136.674 368.172 132.025 362.688 126.289 362.688C120.554 362.688 115.904 368.172 115.904 374.937C115.904 381.702 120.554 387.186 126.289 387.186Z" fill="#A0616A"/>
<path d="M115.475 377.607C115.165 376.068 115.308 373.902 115.483 372.353C115.707 370.309 116.293 368.344 117.202 366.585C118.111 364.825 119.324 363.311 120.761 362.14C121.312 361.646 121.967 361.339 122.655 361.252C122.999 361.218 123.343 361.313 123.638 361.523C123.933 361.734 124.165 362.05 124.299 362.425C124.472 361.915 124.732 361.452 125.062 361.065C125.393 360.679 125.788 360.376 126.221 360.176C127.093 359.782 128.03 359.633 128.958 359.741C130.758 359.916 132.484 360.662 133.953 361.901C135.422 363.14 136.58 364.824 137.302 366.776C137.58 367.554 138.355 364.683 138.706 365.417C139.029 366.18 139.593 366.764 140.276 367.044C140.965 367.27 141.244 370.617 141.515 369.837C141.726 370.413 141.809 371.043 141.757 371.668C141.705 372.293 141.52 372.892 141.219 373.41C140.918 373.928 140.511 374.347 140.036 374.629C139.56 374.911 139.032 375.047 138.5 375.024C137.805 374.918 137.116 374.762 136.436 374.558C135.189 374.372 133.927 374.732 132.889 375.569C131.852 376.406 131.109 377.662 130.803 379.1C130.613 378.263 130.311 377.469 129.906 376.746C129.701 376.387 129.426 376.091 129.104 375.882C128.782 375.674 128.422 375.559 128.055 375.547C127.704 375.594 127.365 375.726 127.059 375.934C126.753 376.141 126.485 376.421 126.274 376.755C125.817 377.388 125.473 378.126 125.013 378.756C123.661 380.604 121.834 384.913 119.908 384.599C118.388 384.351 115.898 379.709 115.475 377.607Z" fill="#2F2E41"/>
<path d="M165.004 450.256C164.562 450.483 164.083 450.592 163.601 450.577C163.119 450.561 162.646 450.422 162.215 450.167C161.784 449.913 161.406 449.551 161.107 449.105C160.807 448.66 160.595 448.142 160.483 447.589L148.828 446.2L152.673 440.634L163.151 442.806C163.951 442.647 164.773 442.84 165.461 443.347C166.149 443.855 166.655 444.643 166.883 445.561C167.111 446.479 167.046 447.464 166.7 448.33C166.353 449.195 165.75 449.881 165.004 450.256Z" fill="#A0616A"/>
<path d="M157.835 448.048L130.637 445.092L130.599 445.042L110.749 418.215C109.443 415.854 108.951 412.994 109.374 410.22C109.798 407.445 111.104 404.967 113.026 403.292C114.09 402.367 115.308 401.719 116.599 401.389C117.89 401.06 119.226 401.056 120.519 401.379C121.811 401.703 123.031 402.345 124.098 403.265C125.164 404.184 126.054 405.359 126.708 406.713L138.934 432.035L158.135 441.134L157.835 448.048Z" fill="#3F3D56"/>
<path d="M578.77 576H100.433C100.276 575.999 100.126 575.925 100.015 575.794C99.904 575.663 99.8418 575.486 99.8418 575.3C99.8418 575.115 99.904 574.938 100.015 574.806C100.126 574.675 100.276 574.601 100.433 574.601H578.77C578.927 574.601 579.078 574.675 579.189 574.806C579.3 574.937 579.363 575.115 579.363 575.3C579.363 575.486 579.3 575.664 579.189 575.795C579.078 575.926 578.927 576 578.77 576Z" fill="#CCCCCC"/>
<path d="M495.584 450.963C496.028 451.014 496.476 450.948 496.897 450.773C497.317 450.597 497.7 450.314 498.018 449.945C498.336 449.576 498.581 449.129 498.736 448.635C498.892 448.142 498.954 447.615 498.918 447.09L508.842 441.937L504.108 438.333L495.409 443.78C494.666 443.909 493.989 444.356 493.507 445.035C493.024 445.714 492.77 446.578 492.792 447.463C492.813 448.349 493.109 449.194 493.624 449.839C494.139 450.484 494.836 450.884 495.584 450.963Z" fill="#FFB6B6"/>
<path d="M501.419 445.919L499.657 438.682L517.497 428.125L528.02 404.208C528.54 403.026 529.275 401.993 530.172 401.183C531.068 400.374 532.105 399.807 533.208 399.523C534.312 399.239 535.454 399.244 536.555 399.54C537.657 399.835 538.689 400.413 539.58 401.232C541.187 402.714 542.23 404.887 542.48 407.274C542.73 409.662 542.168 412.069 540.915 413.968L525.091 437.901L501.419 445.919Z" fill="#E4E4E4"/>
<path d="M405.756 473.408H341.92C341.261 473.408 340.628 472.943 340.162 472.117C339.695 471.291 339.433 470.17 339.433 469.002C339.433 467.833 339.695 466.713 340.162 465.886C340.628 465.06 341.261 464.596 341.92 464.596H405.756C408.963 464.517 408.995 473.488 405.756 473.408Z" fill="#E4E4E4"/>
<path d="M405.756 492.796H341.92C341.261 492.796 340.628 492.362 340.162 491.591C339.695 490.82 339.433 489.774 339.433 488.683C339.433 487.593 339.695 486.547 340.162 485.776C340.628 485.005 341.261 484.571 341.92 484.571H405.756C408.963 484.497 408.995 492.87 405.756 492.796Z" fill="#E4E4E4"/>
<path d="M405.756 512.771H341.92C341.261 512.771 340.628 512.338 340.162 511.566C339.695 510.795 339.433 509.749 339.433 508.659C339.433 507.568 339.695 506.522 340.162 505.751C340.628 504.98 341.261 504.547 341.92 504.547H405.756C408.963 504.473 408.995 512.846 405.756 512.771Z" fill="#E4E4E4"/>
<path d="M200.127 362.766L200.019 361.257L213.858 326.928L213.966 328.438L200.127 362.766Z" fill="#3F3D56"/>
<path d="M252.78 385.57L252.632 384.694L264.003 364.855L264.151 365.731L252.78 385.57Z" fill="#3F3D56"/>
<path d="M230.693 390.967L204.003 370.707L204.212 369.816L230.902 390.076L230.693 390.967Z" fill="#3F3D56"/>
<path d="M240.4 376.692L229.234 338.831L229.587 338.221L240.753 376.083L240.4 376.692Z" fill="#3F3D56"/>
<path d="M249.032 327.124L238.233 327.051V326.384L249.032 326.457V327.124Z" fill="#3F3D56"/>
<path d="M268.748 333.043H256.674C255.038 333.043 253.712 330.393 253.712 327.124C253.712 323.855 255.038 321.205 256.674 321.205H268.748C270.384 321.205 271.71 323.855 271.71 327.124C271.71 330.393 270.384 333.043 268.748 333.043Z" fill="#216CE3"/>
<path d="M284.168 369.294H271.851C270.183 369.294 268.83 366.479 268.83 363.006C268.83 359.533 270.183 356.717 271.851 356.717H284.168C285.836 356.717 287.189 359.533 287.189 363.006C287.189 366.479 285.836 369.294 284.168 369.294Z" fill="#216CE3"/>
<path d="M264.151 394.448L253.352 394.376V393.709L264.151 393.781V394.448Z" fill="#3F3D56"/>
<path d="M284.168 400.367H271.851C270.183 400.367 268.83 397.551 268.83 394.078C268.83 390.605 270.183 387.79 271.851 387.79H284.168C285.836 387.79 287.189 390.605 287.189 394.078C287.189 397.551 285.836 400.367 284.168 400.367Z" fill="#216CE3"/>
<path d="M248.23 395.928H236.156C234.52 395.928 233.194 393.278 233.194 390.009C233.194 386.741 234.52 384.091 236.156 384.091H248.23C249.866 384.091 251.192 386.741 251.192 390.009C251.192 393.278 249.866 395.928 248.23 395.928Z" fill="#216CE3"/>
<path d="M231.672 333.043H219.597C217.961 333.043 216.635 330.227 216.635 326.754C216.635 323.281 217.961 320.465 219.597 320.465H231.672C233.308 320.465 234.634 323.281 234.634 326.754C234.634 330.227 233.308 333.043 231.672 333.043Z" fill="#216CE3"/>
</g>
<path d="M418.904 6.93591H411.443V0H407.44V6.93591H399.977V10.6592H407.44V17.5951H411.443V10.6592H418.904V6.93591Z" fill="#CCCCCC"/>
<path d="M18.9271 439.809H11.4665V432.873H7.46375V439.809H0V443.532H7.46375V450.468H11.4665V443.532H18.9271V439.809Z" fill="#CCCCCC"/>
<path d="M39.7963 472.884H35.1178V468.48H32.6077V472.884H27.9272V475.247H32.6077V479.651H35.1178V475.247H39.7963V472.884Z" fill="#CCCCCC"/>
<path opacity="0.1" d="M371.29 303.678C378.313 303.678 384.007 298.28 384.007 291.622C384.007 284.964 378.313 279.566 371.29 279.566C364.267 279.566 358.573 284.964 358.573 291.622C358.573 298.28 364.267 303.678 371.29 303.678Z" fill="black"/>
<path d="M314.022 214.703C298.167 204.588 286.357 194.608 278.922 185.042C271.504 175.498 268.859 166.877 271.06 159.417C273.26 151.957 280.236 145.898 291.794 141.408C303.38 136.907 318.928 134.213 338.006 133.4L337.8 129.031C296.947 130.77 271.67 141.142 266.627 158.237C261.585 175.331 277.504 196.674 311.456 218.334C339.143 235.998 376.225 252.31 417.72 265.229V260.626C377.205 247.905 341.052 231.948 314.022 214.703Z" fill="#CCCCCC"/>
<path opacity="0.1" d="M314.19 218.636C312.32 217.439 310.504 216.244 308.744 215.051C308.562 216.722 308.413 218.404 308.298 220.096C309.389 220.82 310.5 221.543 311.631 222.265C339.272 239.921 376.293 256.226 417.721 269.139V264.537C377.273 251.822 341.18 235.873 314.19 218.636Z" fill="black"/>
<path d="M486.245 147.917C468.047 143.117 450.009 139.208 432.507 136.199V140.623C449.604 143.589 467.218 147.42 484.997 152.109C541.597 167.036 592.813 188.79 625.513 211.793L628.284 208.306C595.145 184.994 543.374 162.983 486.245 147.917Z" fill="#CCCCCC"/>
<path d="M471.545 56.6952C472.525 56.6952 473.319 55.9658 473.319 55.066C473.319 54.1663 472.525 53.4369 471.545 53.4369C470.565 53.4369 469.77 54.1663 469.77 55.066C469.77 55.9658 470.565 56.6952 471.545 56.6952Z" fill="#F2F2F2"/>
<path d="M591.317 69.7286C593.767 69.7286 595.753 67.8322 595.753 65.4928C595.753 63.1534 593.767 61.2569 591.317 61.2569C588.867 61.2569 586.881 63.1534 586.881 65.4928C586.881 67.8322 588.867 69.7286 591.317 69.7286Z" fill="#CCCCCC"/>
<path d="M733.566 229.388C737.159 229.388 740.072 226.616 740.072 223.197C740.072 219.778 737.159 217.006 733.566 217.006C729.973 217.006 727.06 219.778 727.06 223.197C727.06 226.616 729.973 229.388 733.566 229.388Z" fill="#CCCCCC"/>
<path d="M682.403 127.727C683.873 127.727 685.065 126.56 685.065 125.12C685.065 123.681 683.873 122.514 682.403 122.514C680.933 122.514 679.742 123.681 679.742 125.12C679.742 126.56 680.933 127.727 682.403 127.727Z" fill="#CCCCCC"/>
<path d="M672.941 213.748C674.411 213.748 675.603 212.581 675.603 211.141C675.603 209.701 674.411 208.534 672.941 208.534C671.471 208.534 670.279 209.701 670.279 211.141C670.279 212.581 671.471 213.748 672.941 213.748Z" fill="#CCCCCC"/>
<path d="M596.345 388.2H591.679V383.833H589.178V388.2H584.515V390.544H589.178V394.912H591.679V390.544H596.345V388.2Z" fill="#CCCCCC"/>
<path d="M703.993 365.667H700.496V362.328H698.617V365.667H695.121V367.461H698.617V370.8H700.496V367.461H703.993V365.667Z" fill="#CCCCCC"/>
<path opacity="0.1" d="M470.065 127.727C477.088 127.727 482.782 122.33 482.782 115.671C482.782 109.013 477.088 103.615 470.065 103.615C463.042 103.615 457.349 109.013 457.349 115.671C457.349 122.33 463.042 127.727 470.065 127.727Z" fill="black"/>
<path opacity="0.1" d="M470.065 236.556C477.088 236.556 482.782 231.013 482.782 224.174C482.782 217.336 477.088 211.793 470.065 211.793C463.042 211.793 457.349 217.336 457.349 224.174C457.349 231.013 463.042 236.556 470.065 236.556Z" fill="black"/>
<path opacity="0.1" d="M539.268 170.737C546.291 170.737 551.985 165.194 551.985 158.356C551.985 151.517 546.291 145.974 539.268 145.974C532.245 145.974 526.551 151.517 526.551 158.356C526.551 165.194 532.245 170.737 539.268 170.737Z" fill="black"/>
<path opacity="0.1" d="M582.74 254.151C589.927 254.151 595.753 248.608 595.753 241.769C595.753 234.931 589.927 229.388 582.74 229.388C575.554 229.388 569.728 234.931 569.728 241.769C569.728 248.608 575.554 254.151 582.74 254.151Z" fill="black"/>
<path d="M657.71 236.291C651.606 227.558 641.78 218.438 628.507 209.186L625.733 212.645C651.527 230.624 663.542 247.809 659.566 261.035C657.352 268.401 650.333 274.383 638.704 278.817C627.046 283.261 611.402 285.921 592.206 286.723C588.127 286.893 583.942 286.978 579.651 286.978C542.09 286.978 496.802 280.494 450.498 268.394C444.427 266.807 438.43 265.148 432.507 263.415V267.937C438.023 269.535 443.603 271.073 449.248 272.552C495.956 284.758 541.682 291.297 579.673 291.296C584.023 291.296 588.277 291.211 592.413 291.038C633.52 289.32 658.953 279.079 664.027 262.201C666.38 254.372 664.255 245.654 657.71 236.291Z" fill="#CCCCCC"/>
<path opacity="0.1" d="M592.001 290.61C587.928 290.78 583.748 290.866 579.459 290.866C541.951 290.866 496.716 284.351 450.474 272.189C444.411 270.594 438.422 268.926 432.507 267.185V271.73C438.015 273.336 443.588 274.882 449.225 276.368C495.874 288.635 541.539 295.206 579.482 295.206C583.826 295.206 588.078 295.119 592.209 294.946C597.199 294.737 601.951 294.403 606.466 293.943C607.264 292.418 608.03 290.879 608.766 289.325C603.52 289.93 597.931 290.358 592.001 290.61Z" fill="black"/>
<path d="M539.859 123.166C549.169 123.166 556.716 116.017 556.716 107.2C556.716 98.3819 549.169 91.2338 539.859 91.2338C530.55 91.2338 523.002 98.3819 523.002 107.2C523.002 116.017 530.55 123.166 539.859 123.166Z" fill="white"/>
<path d="M539.563 84.0654C533.131 84.0654 526.963 86.452 522.415 90.7002C517.867 94.9484 515.313 100.71 515.312 106.718C515.313 119.229 539.563 160.311 539.563 160.311C539.563 160.311 563.813 119.229 563.813 106.718C563.813 100.71 561.258 94.9484 556.71 90.7002C552.163 86.452 545.994 84.0654 539.563 84.0654ZM539.563 117.768C537.34 117.768 535.167 117.152 533.319 115.999C531.471 114.845 530.031 113.206 529.18 111.288C528.33 109.37 528.107 107.259 528.541 105.223C528.974 103.186 530.045 101.316 531.616 99.8476C533.188 98.3795 535.19 97.3797 537.37 96.9746C539.55 96.5696 541.81 96.7774 543.863 97.572C545.917 98.3665 547.672 99.712 548.907 101.438C550.142 103.165 550.801 105.194 550.801 107.27C550.801 110.055 549.617 112.725 547.509 114.693C545.402 116.662 542.543 117.768 539.563 117.768Z" fill="#232F43"/>
<path d="M470.065 180.512C479.375 180.512 486.922 173.51 486.922 164.872C486.922 156.235 479.375 149.232 470.065 149.232C460.755 149.232 453.208 156.235 453.208 164.872C453.208 173.51 460.755 180.512 470.065 180.512Z" fill="white"/>
<path d="M469.769 141.412C463.338 141.412 457.17 143.86 452.622 148.217C448.074 152.574 445.519 158.484 445.519 164.646C445.519 177.477 469.769 219.613 469.769 219.613C469.769 219.613 494.02 177.477 494.02 164.646C494.02 158.484 491.465 152.574 486.917 148.217C482.369 143.86 476.201 141.412 469.769 141.412ZM469.769 175.979C467.547 175.979 465.374 175.348 463.526 174.165C461.678 172.982 460.237 171.3 459.387 169.333C458.536 167.365 458.314 165.2 458.747 163.112C459.181 161.023 460.251 159.105 461.823 157.599C463.395 156.093 465.397 155.068 467.577 154.653C469.757 154.237 472.016 154.45 474.07 155.265C476.123 156.08 477.879 157.46 479.113 159.231C480.348 161.001 481.007 163.083 481.007 165.212C481.007 168.068 479.823 170.806 477.716 172.826C475.608 174.845 472.75 175.979 469.769 175.979Z" fill="#232F43"/>
<path d="M470.065 78.2004C479.375 78.2004 486.922 70.9063 486.922 61.9086C486.922 52.9109 479.375 45.6169 470.065 45.6169C460.755 45.6169 453.208 52.9109 453.208 61.9086C453.208 70.9063 460.755 78.2004 470.065 78.2004Z" fill="white"/>
<path d="M469.769 37.7969C463.338 37.7969 457.17 40.2447 452.622 44.6018C448.074 48.9589 445.519 54.8684 445.519 61.0303C445.519 73.8617 469.769 115.997 469.769 115.997C469.769 115.997 494.02 73.8618 494.02 61.0303C494.02 54.8684 491.465 48.9589 486.917 44.6018C482.369 40.2447 476.201 37.7969 469.769 37.7969ZM469.769 72.3637C467.547 72.3637 465.374 71.7322 463.526 70.5492C461.678 69.3661 460.237 67.6846 459.387 65.7172C458.536 63.7498 458.314 61.585 458.747 59.4965C459.181 57.4079 460.251 55.4895 461.823 53.9837C463.395 52.478 465.397 51.4525 467.577 51.0371C469.757 50.6217 472.016 50.8349 474.07 51.6498C476.123 52.4647 477.879 53.8447 479.113 55.6153C480.348 57.3859 481.007 59.4675 481.007 61.597C481.007 63.0109 480.717 64.4109 480.152 65.7172C479.587 67.0235 478.759 68.2104 477.716 69.2102C476.672 70.21 475.433 71.003 474.07 71.5441C472.707 72.0852 471.245 72.3637 469.769 72.3637Z" fill="#CCCCCC"/>
<path d="M583.037 202.669C592.347 202.669 599.894 195.375 599.894 186.377C599.894 177.38 592.347 170.086 583.037 170.086C573.727 170.086 566.18 177.38 566.18 186.377C566.18 195.375 573.727 202.669 583.037 202.669Z" fill="white"/>
<path d="M583.037 162.266C576.684 162.266 570.591 164.693 566.098 169.014C561.606 173.335 559.082 179.195 559.082 185.305C559.082 198.03 583.037 239.814 583.037 239.814C583.037 239.814 606.991 198.03 606.991 185.305C606.991 179.195 604.468 173.335 599.975 169.014C595.483 164.693 589.39 162.266 583.037 162.266ZM583.037 196.544C580.841 196.544 578.695 195.918 576.87 194.745C575.044 193.572 573.621 191.904 572.781 189.953C571.941 188.002 571.721 185.856 572.149 183.784C572.578 181.713 573.635 179.811 575.187 178.318C576.74 176.824 578.718 175.808 580.871 175.396C583.025 174.984 585.257 175.195 587.285 176.003C589.313 176.811 591.047 178.18 592.267 179.936C593.487 181.691 594.138 183.756 594.138 185.867C594.138 188.699 592.968 191.415 590.886 193.417C588.805 195.42 585.981 196.544 583.037 196.544Z" fill="#CCCCCC"/>
<path d="M376.538 118.541C385.847 118.541 393.395 111.392 393.395 102.575C393.395 93.7569 385.847 86.6087 376.538 86.6087C367.228 86.6087 359.681 93.7569 359.681 102.575C359.681 111.392 367.228 118.541 376.538 118.541Z" fill="white"/>
<path d="M376.622 76.6537C368.894 76.6537 361.483 79.2712 356.018 83.9304C350.553 88.5896 347.483 94.9088 347.483 101.498C347.483 115.219 376.622 160.276 376.622 160.276C376.622 160.276 405.762 115.219 405.762 101.498C405.762 94.9088 402.692 88.5896 397.227 83.9304C391.762 79.2712 384.351 76.6537 376.622 76.6537ZM376.622 113.617C373.952 113.617 371.341 112.942 369.12 111.677C366.9 110.412 365.169 108.614 364.147 106.51C363.125 104.406 362.857 102.091 363.378 99.8578C363.899 97.6245 365.185 95.573 367.074 93.9628C368.962 92.3527 371.369 91.2561 373.988 90.8119C376.607 90.3677 379.323 90.5957 381.79 91.4671C384.257 92.3385 386.367 93.8142 387.85 95.7075C389.334 97.6008 390.126 99.8268 390.126 102.104C390.126 105.157 388.703 108.086 386.171 110.245C383.639 112.404 380.204 113.617 376.622 113.617Z" fill="#CCCCCC"/>
<path d="M371.881 253.499C381.191 253.499 388.738 246.351 388.738 237.533C388.738 228.716 381.191 221.568 371.881 221.568C362.571 221.568 355.024 228.716 355.024 237.533C355.024 246.351 362.571 253.499 371.881 253.499Z" fill="white"/>
<path d="M371.586 214.399C365.154 214.399 358.986 216.786 354.438 221.034C349.89 225.282 347.335 231.044 347.335 237.052C347.335 249.563 371.586 290.645 371.586 290.645C371.586 290.645 395.836 249.563 395.836 237.052C395.836 231.044 393.281 225.282 388.733 221.034C384.185 216.786 378.017 214.399 371.586 214.399ZM371.586 248.102C369.363 248.102 367.19 247.486 365.342 246.333C363.494 245.179 362.054 243.54 361.203 241.622C360.352 239.703 360.13 237.593 360.563 235.556C360.997 233.52 362.067 231.65 363.639 230.181C365.211 228.713 367.213 227.714 369.393 227.308C371.573 226.903 373.833 227.111 375.886 227.906C377.94 228.7 379.695 230.046 380.93 231.772C382.164 233.499 382.824 235.528 382.824 237.604C382.824 240.388 381.64 243.059 379.532 245.027C377.424 246.996 374.566 248.102 371.586 248.102Z" fill="#232F43"/>
<defs>
<clipPath id="clip0_1_2231">
<rect width="390.525" height="275.782" fill="white" transform="translate(129.554 225.513)"/>
</clipPath>
<clipPath id="clip1_1_2231">
<rect width="479.523" height="319.383" fill="white" transform="translate(99.8403 256.617)"/>
</clipPath>
</defs>
</svg>
